<svg id="Capa_1" data-name="Capa 1" xmlns="http://www.w3.org/2000/svg" xmlns:xlink="http://www.w3.org/1999/xlink" viewBox="0 0 81.2 46.7"><defs><style>.cls-1{fill:url(#Degradado_sin_nombre_14);}.cls-2{fill:url(#Degradado_sin_nombre_14-2);}.cls-3{fill:url(#Degradado_sin_nombre_14-3);}.cls-4{fill:url(#Degradado_sin_nombre_14-4);}.cls-5{fill:url(#Degradado_sin_nombre_14-5);}.cls-6{fill:url(#Degradado_sin_nombre_14-6);}.cls-7{fill:url(#Degradado_sin_nombre_14-7);}.cls-8{fill:url(#Degradado_sin_nombre_14-8);}.cls-9{fill:url(#Degradado_sin_nombre_14-9);}.cls-10{fill:url(#Degradado_sin_nombre_14-10);}.cls-11{fill:url(#Degradado_sin_nombre_14-11);}.cls-12{fill:url(#Degradado_sin_nombre_14-12);}.cls-13{fill:url(#Degradado_sin_nombre_14-13);}.cls-14{fill:url(#Degradado_sin_nombre_14-14);}.cls-15{fill:url(#Degradado_sin_nombre_14-15);}.cls-16{fill:url(#Degradado_sin_nombre_14-16);}.cls-17{fill:url(#Degradado_sin_nombre_14-17);}.cls-18{fill:url(#Degradado_sin_nombre_14-18);}.cls-19{fill:url(#Degradado_sin_nombre_14-19);}.cls-20{fill:url(#Degradado_sin_nombre_14-20);}.cls-21{fill:url(#Degradado_sin_nombre_14-21);}</style><linearGradient id="Degradado_sin_nombre_14" x1="41.78" y1="5.34" x2="39.36" y2="52.48" gradientUnits="userSpaceOnUse"><stop offset="0" stop-color="#e1841f"/><stop offset="1" stop-color="#dd6618"/></linearGradient><linearGradient id="Degradado_sin_nombre_14-2" x1="15.07" y1="3.97" x2="12.65" y2="51.11" xlink:href="#Degradado_sin_nombre_14"/><linearGradient id="Degradado_sin_nombre_14-3" x1="22.32" y1="4.34" x2="19.89" y2="51.48" xlink:href="#Degradado_sin_nombre_14"/><linearGradient id="Degradado_sin_nombre_14-4" x1="30.36" y1="4.75" x2="27.94" y2="51.9" xlink:href="#Degradado_sin_nombre_14"/><linearGradient id="Degradado_sin_nombre_14-5" x1="38.73" y1="5.18" x2="36.31" y2="52.33" xlink:href="#Degradado_sin_nombre_14"/><linearGradient id="Degradado_sin_nombre_14-6" x1="46.22" y1="5.57" x2="43.8" y2="52.71" xlink:href="#Degradado_sin_nombre_14"/><linearGradient id="Degradado_sin_nombre_14-7" x1="51.35" y1="5.83" x2="48.93" y2="52.98" xlink:href="#Degradado_sin_nombre_14"/><linearGradient id="Degradado_sin_nombre_14-8" x1="55.59" y1="6.05" x2="53.17" y2="53.19" xlink:href="#Degradado_sin_nombre_14"/><linearGradient id="Degradado_sin_nombre_14-9" x1="61.07" y1="6.33" x2="58.64" y2="53.48" xlink:href="#Degradado_sin_nombre_14"/><linearGradient id="Degradado_sin_nombre_14-10" x1="66.91" y1="6.63" x2="64.49" y2="53.78" xlink:href="#Degradado_sin_nombre_14"/><linearGradient id="Degradado_sin_nombre_14-11" x1="4.41" y1="3.42" x2="1.99" y2="50.56" xlink:href="#Degradado_sin_nombre_14"/><linearGradient id="Degradado_sin_nombre_14-12" x1="12.04" y1="3.81" x2="9.61" y2="50.95" xlink:href="#Degradado_sin_nombre_14"/><linearGradient id="Degradado_sin_nombre_14-13" x1="23.18" y1="4.38" x2="20.76" y2="51.53" xlink:href="#Degradado_sin_nombre_14"/><linearGradient id="Degradado_sin_nombre_14-14" x1="30.36" y1="4.75" x2="27.94" y2="51.9" xlink:href="#Degradado_sin_nombre_14"/><linearGradient id="Degradado_sin_nombre_14-15" x1="36.73" y1="5.08" x2="34.31" y2="52.22" xlink:href="#Degradado_sin_nombre_14"/><linearGradient id="Degradado_sin_nombre_14-16" x1="40.49" y1="5.27" x2="38.07" y2="52.42" xlink:href="#Degradado_sin_nombre_14"/><linearGradient id="Degradado_sin_nombre_14-17" x1="46.51" y1="5.58" x2="44.09" y2="52.73" xlink:href="#Degradado_sin_nombre_14"/><linearGradient id="Degradado_sin_nombre_14-18" x1="52.12" y1="5.87" x2="49.7" y2="53.02" xlink:href="#Degradado_sin_nombre_14"/><linearGradient id="Degradado_sin_nombre_14-19" x1="58.93" y1="6.22" x2="56.5" y2="53.37" xlink:href="#Degradado_sin_nombre_14"/><linearGradient id="Degradado_sin_nombre_14-20" x1="68.92" y1="6.74" x2="66.5" y2="53.88" xlink:href="#Degradado_sin_nombre_14"/><linearGradient id="Degradado_sin_nombre_14-21" x1="78.73" y1="7.24" x2="76.3" y2="54.38" xlink:href="#Degradado_sin_nombre_14"/></defs><title>Mesa de trabajo 10</title><path class="cls-1" d="M68.91,16.23,67.39,17l-7.59-9L56.18,10,48,0,37.65,9.31,36,7.62l-8.17,6.67-5.21-4.7C21.21,11,9,22,7.78,23.12h8.93l6.46-7.25,4.13,3.29.88-.78L34,23.12h4.3l-7-6.52,5.5-4.34,5.48,5,4.76-4.41,2.47,2.46L52.27,13l9.52,10.12h3.94l-6.77-8L61,14l4.63,5.36,1.08-.42,3.88,4.21H74Z"/><path class="cls-2" d="M15.43,28.76a1.33,1.33,0,0,0-.55-.42,1.81,1.81,0,0,0-.76-.15,2,2,0,0,0-1.44.63,2.19,2.19,0,0,0-.42.71,2.75,2.75,0,0,0,0,1.79,2,2,0,0,0,.42.7,1.89,1.89,0,0,0,.62.47,1.84,1.84,0,0,0,.77.17,1.73,1.73,0,0,0,.83-.2,1.66,1.66,0,0,0,.6-.55l1.27.95a2.58,2.58,0,0,1-1.11.91,3.41,3.41,0,0,1-1.39.3,4.22,4.22,0,0,1-1.5-.26,3.44,3.44,0,0,1-1.19-.73,3.35,3.35,0,0,1-.78-1.15,4.21,4.21,0,0,1,0-3,3.44,3.44,0,0,1,.78-1.15A3.6,3.6,0,0,1,12.77,27a4.22,4.22,0,0,1,1.5-.25,4.42,4.42,0,0,1,.61,0,4.91,4.91,0,0,1,.63.17,3.09,3.09,0,0,1,.59.32,2.31,2.31,0,0,1,.51.48Z"/><path class="cls-3" d="M17.23,30.42a4.06,4.06,0,0,1,.28-1.51,3.44,3.44,0,0,1,.78-1.15A3.6,3.6,0,0,1,19.48,27a4.22,4.22,0,0,1,1.5-.25,4.29,4.29,0,0,1,1.5.25,3.56,3.56,0,0,1,1.18.73,3.44,3.44,0,0,1,.78,1.15,4.21,4.21,0,0,1,0,3,3.35,3.35,0,0,1-.78,1.15,3.4,3.4,0,0,1-1.18.73,4.3,4.3,0,0,1-1.5.26,4.22,4.22,0,0,1-1.5-.26,3.44,3.44,0,0,1-1.19-.73,3.35,3.35,0,0,1-.78-1.15A4,4,0,0,1,17.23,30.42Zm1.59,0a2.57,2.57,0,0,0,.15.9,1.94,1.94,0,0,0,.44.7,2,2,0,0,0,.68.47,2.39,2.39,0,0,0,1.77,0A2.06,2.06,0,0,0,23,31.32a2.75,2.75,0,0,0,0-1.79,2.07,2.07,0,0,0-.44-.71,1.9,1.9,0,0,0-.68-.46,2.39,2.39,0,0,0-1.77,0,2,2,0,0,0-.68.46,2.07,2.07,0,0,0-.44.71A2.6,2.6,0,0,0,18.82,30.42Z"/><path class="cls-4" d="M25.76,27h2.07l3,4.81h0V27h1.53v6.93h-2L27.3,29h0v4.94H25.76Z"/><path class="cls-5" d="M41.33,33.89h-4.2a4.54,4.54,0,0,1-1.5-.24,3.29,3.29,0,0,1-1.19-.7,3.21,3.21,0,0,1-.79-1.12,3.68,3.68,0,0,1-.28-1.5,3.43,3.43,0,0,1,.29-1.44,3.3,3.3,0,0,1,.79-1.12A3.36,3.36,0,0,1,35.62,27a4.17,4.17,0,0,1,2.9,0,3.69,3.69,0,0,1,1.18.74,3.6,3.6,0,0,1,.79,1.12,3.51,3.51,0,0,1,.28,1.43,3,3,0,0,1-.08.73,2.71,2.71,0,0,1-.25.67,2.26,2.26,0,0,1-.43.56,2.23,2.23,0,0,1-.62.41v0h1.94ZM35,30.33a2.15,2.15,0,0,0,.16.85,2,2,0,0,0,.46.68,2.08,2.08,0,0,0,.67.45,2.06,2.06,0,0,0,1.64,0,2.08,2.08,0,0,0,.67-.45,2,2,0,0,0,.46-.68,2.19,2.19,0,0,0,0-1.69,2,2,0,0,0-.46-.68,2.08,2.08,0,0,0-.67-.45,2.06,2.06,0,0,0-1.64,0,2.08,2.08,0,0,0-.67.45,2,2,0,0,0-.46.68A2.13,2.13,0,0,0,35,30.33Z"/><path class="cls-6" d="M47.93,31.22a3.39,3.39,0,0,1-.18,1.13,2.45,2.45,0,0,1-.56.9,2.41,2.41,0,0,1-.91.6,3.33,3.33,0,0,1-1.26.22,3.37,3.37,0,0,1-1.28-.22,2.41,2.41,0,0,1-.91-.6,2.45,2.45,0,0,1-.56-.9,3.39,3.39,0,0,1-.18-1.13V27h1.52v4.2a1.73,1.73,0,0,0,.11.6,1.33,1.33,0,0,0,.29.47,1.25,1.25,0,0,0,.44.31,1.35,1.35,0,0,0,.57.12,1.39,1.39,0,0,0,1-.43,1.33,1.33,0,0,0,.29-.47,1.73,1.73,0,0,0,.11-.6V27h1.52Z"/><path class="cls-7" d="M49.33,27h1.52v6.93H49.33Z"/><path class="cls-8" d="M55.67,28.65a1.08,1.08,0,0,0-.5-.35,1.91,1.91,0,0,0-.6-.11,1.45,1.45,0,0,0-.35,0,1.31,1.31,0,0,0-.33.12.76.76,0,0,0-.25.22.52.52,0,0,0-.1.33.56.56,0,0,0,.23.48,2.1,2.1,0,0,0,.6.29c.23.08.49.16.76.23a3,3,0,0,1,.77.34,1.81,1.81,0,0,1,.6.57,1.86,1.86,0,0,1,.23,1,2.25,2.25,0,0,1-.21,1,2.08,2.08,0,0,1-.59.72,2.42,2.42,0,0,1-.85.42,3.75,3.75,0,0,1-1,.14,3.7,3.7,0,0,1-1.26-.21,3.27,3.27,0,0,1-1.07-.66L52.81,32a1.69,1.69,0,0,0,.6.49,1.71,1.71,0,0,0,.74.17,1.64,1.64,0,0,0,.37,0,1.33,1.33,0,0,0,.35-.13.66.66,0,0,0,.24-.23.55.55,0,0,0,.09-.32.58.58,0,0,0-.24-.49,2.11,2.11,0,0,0-.6-.31c-.24-.09-.5-.17-.78-.26a3.49,3.49,0,0,1-.79-.34,1.81,1.81,0,0,1-.6-.57A1.6,1.6,0,0,1,52,29a2.05,2.05,0,0,1,.22-1,2.1,2.1,0,0,1,.59-.7,2.62,2.62,0,0,1,.85-.43,3.64,3.64,0,0,1,1-.14,3.56,3.56,0,0,1,1.13.17,2.55,2.55,0,0,1,1,.55Z"/><path class="cls-9" d="M59.21,28.31h-2V27h5.49v1.35h-2v5.58H59.21Z"/><path class="cls-10" d="M64.87,27h1.26l3,6.93H67.43l-.6-1.47H64.14l-.58,1.47H61.87Zm.59,2-.84,2.16h1.69Z"/><path class="cls-11" d="M1.2,36.81a.37.37,0,0,1,.14-.31,1.74,1.74,0,0,1,.39-.2l1.5-.52h.12a.35.35,0,0,1,.33.15.78.78,0,0,1,.08.37v1.82h.9a.45.45,0,0,1,.48.51V39.9a.55.55,0,0,1-.13.41.5.5,0,0,1-.35.13h-.9V46a.52.52,0,0,1-.14.38.65.65,0,0,1-.41.13H1.71A.45.45,0,0,1,1.2,46v-5.6H.51Q0,40.44,0,39.9V38.62a.45.45,0,0,1,.51-.51h.68Z"/><path class="cls-12" d="M13.88,46.44l-.18.09-.19,0h-1a.39.39,0,0,1-.2,0,.33.33,0,0,1-.15-.11.69.69,0,0,1-.1-.17A1.07,1.07,0,0,1,12,46l-.13-.65a1.74,1.74,0,0,1-.34.44,2.63,2.63,0,0,1-.57.42,3.83,3.83,0,0,1-.79.31,3.28,3.28,0,0,1-1,.13,2.82,2.82,0,0,1-2.33-1.09,3.48,3.48,0,0,1-.61-1.18A5,5,0,0,1,6.06,43V38.63a.54.54,0,0,1,.11-.38.41.41,0,0,1,.34-.13H8.05a.55.55,0,0,1,.39.1.5.5,0,0,1,.1.37v4.33a1.41,1.41,0,0,0,.11.54,1.77,1.77,0,0,0,.3.45,1.48,1.48,0,0,0,.43.31,1.4,1.4,0,0,0,.53.11,2.06,2.06,0,0,0,.52-.08A1.56,1.56,0,0,0,11,44a1.34,1.34,0,0,0,.39-.43,1.19,1.19,0,0,0,.16-.64V38.61a.59.59,0,0,1,.05-.22.35.35,0,0,1,.13-.18.56.56,0,0,1,.16-.07l.17,0h1.5a.57.57,0,0,1,.42.14.55.55,0,0,1,.12.37v7.43a.59.59,0,0,1-.05.23.35.35,0,0,1-.16.16Z"/><path class="cls-13" d="M19.94,38.24a2.57,2.57,0,0,1,.27-1.16,3,3,0,0,1,.71-.95,3.36,3.36,0,0,1,1-.65,3.29,3.29,0,0,1,1.21-.23h.13a.42.42,0,0,1,.35.14.53.53,0,0,1,.12.37V37a.58.58,0,0,1-.13.4.41.41,0,0,1-.34.17h-.13a.62.62,0,0,0-.27,0,.8.8,0,0,0-.22.13.65.65,0,0,0-.16.21.51.51,0,0,0-.06.25V39h1a.45.45,0,0,1,.35.13.52.52,0,0,1,.12.38v1.22a.62.62,0,0,1-.12.42.45.45,0,0,1-.35.13h-1V46a.47.47,0,0,1-.17.38.64.64,0,0,1-.37.13H20.47a.51.51,0,0,1-.53-.51V41.28h-.68a.53.53,0,0,1-.38-.13.57.57,0,0,1-.14-.42V39.51a.49.49,0,0,1,.14-.38.53.53,0,0,1,.38-.13h.68Z"/><path class="cls-14" d="M31.62,45.54a4.44,4.44,0,0,1-1.31.84,4.07,4.07,0,0,1-1.55.3,4.5,4.5,0,0,1-3.14-1.25,4.36,4.36,0,0,1-1-1.38,4.17,4.17,0,0,1-.36-1.74,4.33,4.33,0,0,1,.15-1.13,4.51,4.51,0,0,1,.4-1,4.6,4.6,0,0,1,.64-.88,4,4,0,0,1,.84-.69,3.82,3.82,0,0,1,1-.44A3.88,3.88,0,0,1,28.47,38a4.18,4.18,0,0,1,1.07.14,4,4,0,0,1,1,.42A4.09,4.09,0,0,1,32,40a3.8,3.8,0,0,1,.42.94,3.57,3.57,0,0,1,.15,1c0,.23,0,.42,0,.56a.58.58,0,0,1-.11.35.46.46,0,0,1-.3.18,3.36,3.36,0,0,1-.64,0H26.74a1.67,1.67,0,0,0,.26.71,1.71,1.71,0,0,0,1,.7,2.26,2.26,0,0,0,.56.07,2.81,2.81,0,0,0,.49-.05,3.92,3.92,0,0,0,.49-.13,3.46,3.46,0,0,0,.43-.19,1.77,1.77,0,0,0,.32-.23l.18-.13a.3.3,0,0,1,.16,0,.32.32,0,0,1,.18.06,1.46,1.46,0,0,1,.2.18l.7.79a.38.38,0,0,1,.09.16.32.32,0,0,1,0,.14.35.35,0,0,1-.07.23A.91.91,0,0,1,31.62,45.54ZM28.43,40a1.25,1.25,0,0,0-.5.11,1.79,1.79,0,0,0-.46.27,2.79,2.79,0,0,0-.38.39,2.68,2.68,0,0,0-.27.45h3.39a3.62,3.62,0,0,0-.31-.48,1.71,1.71,0,0,0-.37-.39,1.57,1.57,0,0,0-.48-.25A1.65,1.65,0,0,0,28.43,40Z"/><path class="cls-15" d="M33.62,36.12a.56.56,0,0,1,.11-.35.41.41,0,0,1,.36-.15h1.63a.27.27,0,0,1,.14,0,.41.41,0,0,1,.13.1.46.46,0,0,1,.11.16.45.45,0,0,1,0,.2V46a.48.48,0,0,1-.14.38.55.55,0,0,1-.37.13H34.09a.46.46,0,0,1-.36-.13.61.61,0,0,1-.11-.38Z"/><path class="cls-16" d="M37.4,35.28a.52.52,0,0,1,.12-.39.5.5,0,0,1,.37-.12h1.54a.55.55,0,0,1,.37.12.45.45,0,0,1,.14.39v1.3a.55.55,0,0,1,0,.17,1.62,1.62,0,0,1-.1.18.58.58,0,0,1-.17.14.37.37,0,0,1-.21.06H37.89c-.33,0-.49-.19-.49-.55Zm0,3.36a.61.61,0,0,1,.12-.37.44.44,0,0,1,.37-.15h1.52a.38.38,0,0,1,.17,0,.59.59,0,0,1,.17.1.58.58,0,0,1,.14.17.36.36,0,0,1,0,.21V46a.52.52,0,0,1-.13.38.62.62,0,0,1-.4.13H37.89c-.33,0-.49-.17-.49-.51Z"/><path class="cls-17" d="M46.6,44a.51.51,0,0,1,.17-.08l.13,0a.46.46,0,0,1,.21,0,.53.53,0,0,1,.19.2l.75,1.12.06.12a.26.26,0,0,1,0,.11.3.3,0,0,1-.1.24.68.68,0,0,1-.21.17,4.62,4.62,0,0,1-1.19.61,4.15,4.15,0,0,1-1.37.23,4.37,4.37,0,0,1-1.15-.15,4.1,4.1,0,0,1-1-.44,4.76,4.76,0,0,1-.88-.67,4.36,4.36,0,0,1-.67-.88,4.66,4.66,0,0,1-.44-1.05,4.42,4.42,0,0,1,.44-3.39,4,4,0,0,1,.67-.87,4.41,4.41,0,0,1,.88-.68,4.48,4.48,0,0,1,1-.43A4.37,4.37,0,0,1,45.27,38a4.43,4.43,0,0,1,1.34.19,4.26,4.26,0,0,1,1.15.57l0,0a.92.92,0,0,1,.23.2.48.48,0,0,1,.09.29.52.52,0,0,1-.08.25l-.59,1a.55.55,0,0,1-.45.33l-.15,0a.77.77,0,0,1-.19-.11,2.84,2.84,0,0,0-.63-.31,2.08,2.08,0,0,0-.71-.13,1.77,1.77,0,0,0-.77.17,1.74,1.74,0,0,0-.6.47,2,2,0,0,0-.39.67,2.46,2.46,0,0,0-.14.81,2.43,2.43,0,0,0,.14.82,2,2,0,0,0,.39.66,1.67,1.67,0,0,0,.6.44,1.77,1.77,0,0,0,.77.16,1.87,1.87,0,0,0,.71-.13A3.2,3.2,0,0,0,46.6,44Z"/><path class="cls-18" d="M49.06,35.28a.52.52,0,0,1,.12-.39.5.5,0,0,1,.37-.12h1.54a.58.58,0,0,1,.38.12.49.49,0,0,1,.14.39v1.3a.38.38,0,0,1,0,.17.81.81,0,0,1-.1.18.7.7,0,0,1-.16.14.43.43,0,0,1-.22.06H49.55c-.33,0-.49-.19-.49-.55Zm0,3.36a.61.61,0,0,1,.12-.37.44.44,0,0,1,.37-.15h1.52a.38.38,0,0,1,.17,0,.81.81,0,0,1,.18.1.76.76,0,0,1,.13.17.37.37,0,0,1,.06.21V46a.52.52,0,0,1-.14.38.6.6,0,0,1-.4.13H49.55c-.33,0-.49-.17-.49-.51Z"/><path class="cls-19" d="M58.87,45.72a2.89,2.89,0,0,1-.41.35,2.76,2.76,0,0,1-.49.32,2.68,2.68,0,0,1-.58.22,2.32,2.32,0,0,1-.65.09,4,4,0,0,1-1.67-.34,3.89,3.89,0,0,1-1.3-.92,4.39,4.39,0,0,1-.86-1.39,4.87,4.87,0,0,1,0-3.42,4.24,4.24,0,0,1,.86-1.38,3.92,3.92,0,0,1,1.3-.93A4.15,4.15,0,0,1,56.74,38a3.37,3.37,0,0,1,.66.06,2.22,2.22,0,0,1,.55.18,2.39,2.39,0,0,1,.46.29,4.48,4.48,0,0,1,.4.36V36.12a.52.52,0,0,1,.13-.36.46.46,0,0,1,.38-.15h1.5a.74.74,0,0,1,.18,0,.59.59,0,0,1,.17.1.48.48,0,0,1,.13.16.36.36,0,0,1,.05.21V46a.46.46,0,0,1-.53.51h-1.3a.41.41,0,0,1-.21,0,.27.27,0,0,1-.12-.09.42.42,0,0,1-.09-.16L59,46ZM55,42.34a2.43,2.43,0,0,0,.14.82,2,2,0,0,0,.39.66,1.76,1.76,0,0,0,.6.44,1.86,1.86,0,0,0,.79.16,2.15,2.15,0,0,0,.8-.15,1.92,1.92,0,0,0,.65-.42,2,2,0,0,0,.45-.63,2.35,2.35,0,0,0,.19-.79v-.09a2.05,2.05,0,0,0-.16-.81,2.16,2.16,0,0,0-.44-.67,2.13,2.13,0,0,0-.67-.47,2,2,0,0,0-.82-.17,1.86,1.86,0,0,0-.79.17,1.84,1.84,0,0,0-.6.47,2,2,0,0,0-.39.67A2.46,2.46,0,0,0,55,42.34Z"/><path class="cls-20" d="M71.46,46.06a.78.78,0,0,1,0,.21.31.31,0,0,1-.14.16.32.32,0,0,1-.17.1l-.17,0H69.63a.46.46,0,0,1-.22,0,.3.3,0,0,1-.14-.1.51.51,0,0,1-.09-.16L69.1,46l-.08-.3a5,5,0,0,1-.41.35,3.14,3.14,0,0,1-.51.31,3.43,3.43,0,0,1-.59.22,2.75,2.75,0,0,1-.65.08,4.45,4.45,0,0,1-1.16-.15,4.1,4.1,0,0,1-1-.44,4.12,4.12,0,0,1-1.55-1.55,4.22,4.22,0,0,1-.43-1.05,4.47,4.47,0,0,1-.16-1.17,4.38,4.38,0,0,1,.34-1.71,4.57,4.57,0,0,1,.92-1.38,4.25,4.25,0,0,1,1.38-.93A4.32,4.32,0,0,1,66.86,38a3.19,3.19,0,0,1,.77.09,3.37,3.37,0,0,1,.65.25,2.9,2.9,0,0,1,.53.39,2.41,2.41,0,0,1,.42.48l.19-.61c0-.11.08-.2.11-.27a.66.66,0,0,1,.09-.15.31.31,0,0,1,.13-.06.53.53,0,0,1,.2,0h1l.17,0a.26.26,0,0,1,.17.09.44.44,0,0,1,.14.17.65.65,0,0,1,0,.21Zm-6.54-3.72a2.43,2.43,0,0,0,.14.82,2,2,0,0,0,.39.66,1.76,1.76,0,0,0,.6.44,1.86,1.86,0,0,0,.79.16,2.08,2.08,0,0,0,.83-.16,2,2,0,0,0,1.1-1.1,2.16,2.16,0,0,0,0-1.63,2.16,2.16,0,0,0-.44-.67,2.21,2.21,0,0,0-.66-.47,2.09,2.09,0,0,0-.83-.17,1.86,1.86,0,0,0-.79.17,1.84,1.84,0,0,0-.6.47,2,2,0,0,0-.39.67A2.46,2.46,0,0,0,64.92,42.34Z"/><path class="cls-21" d="M78.72,45.72a2.89,2.89,0,0,1-.41.35,2.76,2.76,0,0,1-.49.32,2.89,2.89,0,0,1-.58.22,2.32,2.32,0,0,1-.65.09,4,4,0,0,1-1.67-.34,3.89,3.89,0,0,1-1.3-.92,4.39,4.39,0,0,1-.86-1.39,4.87,4.87,0,0,1,0-3.42,4.24,4.24,0,0,1,.86-1.38,3.92,3.92,0,0,1,1.3-.93A4.15,4.15,0,0,1,76.59,38a3.37,3.37,0,0,1,.66.06,2.22,2.22,0,0,1,.55.18,2.39,2.39,0,0,1,.46.29,4.48,4.48,0,0,1,.4.36V36.12a.56.56,0,0,1,.12-.36.5.5,0,0,1,.39-.15h1.5a.74.74,0,0,1,.18,0,.59.59,0,0,1,.17.1.48.48,0,0,1,.13.16.36.36,0,0,1,0,.21V46a.46.46,0,0,1-.53.51h-1.3a.41.41,0,0,1-.21,0,.27.27,0,0,1-.12-.09.42.42,0,0,1-.09-.16l-.1-.22Zm-3.88-3.38a2.43,2.43,0,0,0,.14.82,2,2,0,0,0,.39.66,1.76,1.76,0,0,0,.6.44,1.86,1.86,0,0,0,.79.16,2.15,2.15,0,0,0,.8-.15,1.92,1.92,0,0,0,.65-.42,2,2,0,0,0,.45-.63,2.35,2.35,0,0,0,.19-.79v-.09a2.25,2.25,0,0,0-.16-.81,2.16,2.16,0,0,0-.44-.67,2.13,2.13,0,0,0-.67-.47,2,2,0,0,0-.82-.17,1.86,1.86,0,0,0-.79.17,1.84,1.84,0,0,0-.6.47,2,2,0,0,0-.39.67A2.46,2.46,0,0,0,74.84,42.34Z"/></svg>