<svg id="Layer_1" data-name="Layer 1" xmlns="http://www.w3.org/2000/svg" viewBox="0 0 81.7 81.7"><defs><style>.cls-1{fill:#e5e7e9;}</style></defs><title>Mesa de trabajo 46</title><path class="cls-1" d="M73.08,63.52l-3.67-.83c-.24,0-.33-.13-.31-.39.07-1.33.15-2.66.19-4s0-2.86.06-4.29q.11-8.31.22-16.62t.16-16.69a.75.75,0,0,0-.76-.89c-.81-.11-1.63-.2-2.44-.3l-5.93-.74-5.19-.65c-1.69-.22-3.39-.44-5.08-.63a1,1,0,0,0-.63.2c-.37.26-.28.68-.29,1.07q-.06,8-.13,16Q49.21,45,49.11,55.28a.79.79,0,0,1-.22.47c-.32.29-.68.53-1,.83a1.14,1.14,0,0,0-.49.88c0,.22-.12.25-.3.21-.4-.1-.81-.16-1.2-.28a1,1,0,0,1-.47-.31c-1.29-1.74-2.58-3.48-3.85-5.23a1.27,1.27,0,0,1-.23-.7c0-1.39,0-2.77,0-4.15a.92.92,0,0,1,.3-.87,1,1,0,0,0,.42-.81,5.29,5.29,0,0,1,1-2.49,32.79,32.79,0,0,0,1.67-3.16,2.1,2.1,0,0,0,0-1.77c-.42-1-.83-1.94-1.21-2.92a18,18,0,0,0-1.82-3.81,2.74,2.74,0,0,0-2.16-1.48c-.24,0-.32-.15-.31-.38s.17-.28.36-.26l.53,0a.86.86,0,0,0,1-.55,24,24,0,0,0,.95-2.78,16.38,16.38,0,0,0,.31-2.89,1.88,1.88,0,0,0-1-1.92A6.13,6.13,0,0,0,38,20.22a2.14,2.14,0,0,0-2.16,2,14.54,14.54,0,0,0-.13,4.06,1.86,1.86,0,0,0,.89,1.63.81.81,0,0,1,.43,1,2.47,2.47,0,0,0,0,.38c0,.21-.1.3-.31.27l-.35,0a2.38,2.38,0,0,0-2.06,1c-.59.87-1.08,1.83-1.59,2.76s-.8,1.58-1.22,2.37c-.25.47-.54.92-.81,1.4l-.21-.25L19.82,22.33c-.13-.17-.25-.34-.39-.5s-.36-.21-.54.06c-.64.94-1.3,1.86-2,2.79L8.28,37v1.2l4.79-6.78.74,1c.37.48.72,1,1.09,1.43s.46.38.81.08l2.52-2.24.35-.29L20,33c.4.49.55.49,1,0l1.57-1.66,1.16,1.81c.35.55.59.54.94,0l1.07-1.67.25.31c1.4,1.9,2.81,3.79,4.18,5.7a7.46,7.46,0,0,1,.46,1.08c.75,1.45,1.5,2.91,2.28,4.35a2.41,2.41,0,0,1,.3,1.48,1.07,1.07,0,0,0,.36,1,2.32,2.32,0,0,1,.77,2.06c-.08,1.94-.14,3.88-.13,5.82,0,1.68.11,3.35.16,5a21.25,21.25,0,0,1-.13,4.51,11.44,11.44,0,0,0-.34,3.3.89.89,0,0,0,1,.92A10.51,10.51,0,0,0,36.08,67a1.29,1.29,0,0,0,1-.89,4.31,4.31,0,0,0,.4-1.66,1.19,1.19,0,0,0-.63-1.06.5.5,0,0,1-.24-.3,28.82,28.82,0,0,1-.19-2.93c0-1.47.18-2.94.3-4.41.15-1.68.33-3.35.48-5a.65.65,0,0,1,.89-.62.38.38,0,0,1,.19.28c.15,1.46.28,2.92.43,4.37.08.72.22,1.44.28,2.16.09,1.26.14,2.52.21,3.78a29.06,29.06,0,0,1-.11,4,9,9,0,0,0,.08,1.64.9.9,0,0,0,.67.75,1.68,1.68,0,0,0,1.73-.23c.36-.33.71-.69,1.1-1A1,1,0,0,0,43,64.58a1.39,1.39,0,0,0-1.19-1c-.46-.06-.43-.47-.43-.72,0-1.61,0-3.23,0-4.84s.09-3,.14-4.45V53l.24.3c1,1.42,2.11,2.84,3.15,4.27a1,1,0,0,0,.81.5,10,10,0,0,1,1.41.31c-.15.68-.28,1.33-.45,2-.11.39-.09.52.32.63l2.42.59Q57,63.45,64.59,65.31a1.16,1.16,0,0,0,1-.18c.86-.58,1.75-1.13,2.62-1.7A.9.9,0,0,1,69,63.3l3.86.87Zm-48-32.35c-.31.45-.59.92-.93,1.45-.43-.69-.83-1.3-1.21-1.93-.23-.38-.42-.38-.71-.05-.56.63-1.14,1.24-1.74,1.88-.46-.56-.9-1.09-1.33-1.63s-.55-.51-1-.09l-2.79,2.47a1.61,1.61,0,0,0-.12-.23c-.51-.68-1-1.35-1.53-2a.35.35,0,0,1,0-.47l5.46-7.75.12-.09c.39.53.78,1.05,1.16,1.58L25,30.59A.41.41,0,0,1,25.06,31.17Zm9,10.37-.11,0a6.1,6.1,0,0,1-.34-.54c-.38-.88-.76-1.76-1.1-2.66a.82.82,0,0,1,.06-.65c.52-.79,1.09-1.54,1.65-2.31,0,0,0,0,.16-.12C34.32,37.42,34.3,39.49,34.09,41.54ZM41.34,35a7.55,7.55,0,0,1,.52,1c.34.94.65,1.89,1,2.84a.4.4,0,0,1,0,.24,6.55,6.55,0,0,1-1.66,2.66A30.06,30.06,0,0,1,41.34,35ZM64.87,64.63,47.4,60.39c.21-1,.41-1.83.59-2.72,0-.22.08-.28.34-.2.72.21,1.45.37,2.18.53l14.64,3.34.46.11C65.37,62.51,65.12,63.55,64.87,64.63ZM69,21A7.32,7.32,0,0,0,69,22q-.08,5.82-.13,11.66c0,2.75-.07,5.5-.1,8.26q-.1,8.37-.22,16.76c0,1.16,0,2.31-.1,3.47a.79.79,0,0,1-.28.52c-.74.49-1.5.95-2.32,1.46.2-.85.4-1.62.56-2.4.12-.56.57-.81,1-1.08s.39-.68.39-1.19l-.57.4c-.34.26-.68.54-1,.78a.71.71,0,0,1-.46,0l-15.11-3.4-2-.45a10.3,10.3,0,0,1,1-.75.49.49,0,0,0,.25-.45c0-.68,0-1.36,0-2q.09-10.35.17-20.7l.12-14.26c0-.43.06-.47.47-.42l5.89.74,6.59.83c1.86.23,3.72.47,5.58.69C69,20.54,69,20.68,69,21Z"/><path class="cls-1" d="M68.4,22.92q-.08,6.74-.17,13.48-.12,8.19-.22,16.38L68,57.7c0,.62,0,.76-.78.64-1.11-.16-2.21-.43-3.31-.65l-6.78-1.4L51,55c-.74-.16-.73-.16-.73-.94,0-3.61.06-7.22.09-10.82q.07-8.79.16-17.57l0-5.42c0-.1,0-.21,0-.31.06-.6.25-.73.84-.66l5.27.64L66.88,21.2l1,.1a.67.67,0,0,1,.64.7v.92ZM55.59,55.25a2.42,2.42,0,0,0,0-.26c0-1.42.13-2.84.14-4.25,0-2.2,0-4.4,0-6.6a2,2,0,0,0-.16-.78c-.83-1.71-1.68-3.4-2.53-5.1a2.23,2.23,0,0,1,.13-2.21c.91-1.5,1.88-3,2.83-4.44a1.36,1.36,0,0,1,.92-.64,6.11,6.11,0,0,0,1-.23.77.77,0,0,0,.42-.39c.11-.26-.15-.35-.33-.45s-.19-.09-.28-.15a2,2,0,0,1-1.12-1.63,17.78,17.78,0,0,1,.2-4,1.74,1.74,0,0,1,.21-.69,2.29,2.29,0,0,1,1.47-1,6.69,6.69,0,0,1,1.61-.07A1.9,1.9,0,0,1,61.87,24,13.65,13.65,0,0,1,62,28.36a1.75,1.75,0,0,1-.62,1.29c-.29.21-.6.4-.9.58s-.3.36-.07.52a3.42,3.42,0,0,0,.77.48,2.88,2.88,0,0,1,1.64,1.59c.3.62.56,1.26.83,1.9.4.91.83,1.8,1.18,2.73a1.73,1.73,0,0,1,.06,1.12,11.73,11.73,0,0,1-.9,1.81c-.64,1.14-1.32,2.26-2,3.41a1.67,1.67,0,0,0-.22.76c0,1.29,0,2.57,0,3.86,0,.78.07,1.57.06,2.35,0,1.81,0,3.63-.06,5.44a.32.32,0,0,0,.3.39c1.58.31,3.16.63,4.74,1,.33.07.39-.05.39-.33,0-2.57.06-5.13.1-7.7q.06-5.43.14-10.86.09-7.87.17-15.77a1.92,1.92,0,0,1,.07-.48c.1-.36.09-.4-.29-.45l-2.27-.27L51.74,20.06c-.49-.06-.5,0-.51.43v.28q-.06,5-.11,10.05Q51,42.39,50.93,54c0,.28.1.39.36.43l2.17.44Zm3.31-9.56h-.09a1.58,1.58,0,0,0-.11.37c-.08.59-.13,1.18-.2,1.77s-.16,1-.2,1.46,0,1.14-.08,1.71c-.14,1.46-.3,2.91-.43,4.36,0,.12,0,.34.1.35.49.14,1,.23,1.45.33A51.6,51.6,0,0,0,58.9,45.69ZM55.81,35.38c-.45.66-.85,1.23-1.23,1.81a.39.39,0,0,0,0,.3c.23.76.46,1.52.73,2.27a2.79,2.79,0,0,0,.4.59l.09,0Zm6,5.33c.42-.57.84-1.1,1.19-1.67A1.2,1.2,0,0,0,63.12,38c-.22-.56-.48-1.11-.73-1.67a5,5,0,0,0-.33-.55Z"/><path class="cls-1" d="M66.37,59.56l-2.09-.44L51.09,56.35c-.27-.06-.53-.14-.44-.45s.35-.28.62-.23l7.8,1.63,7,1.45a.84.84,0,0,1,.33.08c.12.1.28.26.27.37S66.45,59.47,66.37,59.56Z"/><path class="cls-1" d="M40.85,81.7A40.85,40.85,0,1,1,81.7,40.85,40.9,40.9,0,0,1,40.85,81.7Zm0-77.32A36.47,36.47,0,1,0,77.32,40.85,36.51,36.51,0,0,0,40.85,4.38Z"/></svg>