<svg id="Capa_1" data-name="Capa 1" xmlns="http://www.w3.org/2000/svg" xmlns:xlink="http://www.w3.org/1999/xlink" viewBox="0 0 19.04 19.04"><defs><style>.cls-1{fill-rule:evenodd;fill:url(#Degradado_sin_nombre_14);}</style><linearGradient id="Degradado_sin_nombre_14" y1="9.52" x2="19.04" y2="9.52" gradientUnits="userSpaceOnUse"><stop offset="0" stop-color="#e1841f"/><stop offset="1" stop-color="#dd6618"/></linearGradient></defs><title>Mesa de trabajo 12</title><path class="cls-1" d="M9.51,0A9.52,9.52,0,1,0,19,9.51,9.51,9.51,0,0,0,9.51,0Zm2.72,9.4a.39.39,0,0,1,.56,0l.63.62V7.49a.4.4,0,1,1,.79,0V10l.64-.63a.39.39,0,0,1,.56,0,.39.39,0,0,1,0,.55L14,11.35a.28.28,0,0,1-.38,0L12.23,10A.39.39,0,0,1,12.23,9.4Zm-1.76,4.3a.48.48,0,0,1-.76.4l-3.18-2H3.8a.47.47,0,0,1-.46-.48V7.37a.47.47,0,0,1,.46-.46H6.53l3.21-2a.48.48,0,0,1,.73.4Zm5.77-1.06H11.4a.38.38,0,0,1,0-.75h4.84a.38.38,0,0,1,0,.75Z"/></svg>