<svg id="Capa_1" data-name="Capa 1" xmlns="http://www.w3.org/2000/svg" viewBox="0 0 15.9 22.87"><defs><style>.cls-1{fill:#dd6618;}</style></defs><title>Mesa de trabajo 8</title><path class="cls-1" d="M15.31,0H.59A.58.58,0,0,0,0,.58V19.64a.58.58,0,0,0,.59.58H9.52v2.07a.58.58,0,0,0,.31.51.53.53,0,0,0,.28.07.62.62,0,0,0,.32-.09L11.64,22l1.21.79a.59.59,0,0,0,.6,0,.57.57,0,0,0,.3-.51V20.22h1.56a.59.59,0,0,0,.59-.58V.58A.59.59,0,0,0,15.31,0ZM11.64,18.4A1.38,1.38,0,1,1,13,17,1.37,1.37,0,0,1,11.64,18.4Zm2.11,0A2.48,2.48,0,0,0,14.19,17a2.55,2.55,0,1,0-4.67,1.41v.61H1.17V1.17H14.72V19.05h-1Zm-3.06.95a2.57,2.57,0,0,0,1.89,0v1.82L12,20.8a.57.57,0,0,0-.64,0l-.63.41Z"/><path class="cls-1" d="M12.12,3.07H3.78a.78.78,0,0,0,0,1.56h8.34a.78.78,0,0,0,0-1.56Z"/><path class="cls-1" d="M12.12,6.2H3.78a.78.78,0,0,0,0,1.56h8.34a.78.78,0,1,0,0-1.56Z"/><path class="cls-1" d="M12.12,9.32H3.78a.79.79,0,0,0,0,1.57h8.34a.79.79,0,0,0,0-1.57Z"/></svg>