<svg id="Layer_1" data-name="Layer 1" xmlns="http://www.w3.org/2000/svg" viewBox="0 0 81.7 81.7"><defs><style>.cls-1{fill:#e5e7e9;}</style></defs><title>Mesa de trabajo 45</title><path class="cls-1" d="M13.31,35.5l2.19.28,6.61.92,6.59.91,4.18.58.36.05a.42.42,0,0,1,.36.47.4.4,0,0,1-.46.34c-.48,0-1-.13-1.42-.19l-.79-.1a.84.84,0,0,0,.41.73,8.63,8.63,0,0,0,3.22,1.64,31.63,31.63,0,0,0,5.37.95A15.74,15.74,0,0,0,41.75,42a13.46,13.46,0,0,1,1.39-.16,1.68,1.68,0,0,1,.76.34c.62.37,1.21.77,1.82,1.14q2.55,1.54,5.11,3.08a2.53,2.53,0,0,0,.79.3,1.23,1.23,0,0,0,1.22-.43A1.34,1.34,0,0,0,53.15,45a2.24,2.24,0,0,0-.87-1c-1.22-.91-2.42-1.83-3.63-2.75-.8-.61-1.6-1.22-2.41-1.81a1.06,1.06,0,0,1-.4-.61c-.37-1.51-.75-3-1.12-4.52,0-.1,0-.2-.06-.3a.38.38,0,0,1,.3-.44.37.37,0,0,1,.46.26,5.11,5.11,0,0,1,.22.79l.63,2.52c0,.07,0,.14.08.25l.3-.31,2.64-3,.17-.18a.41.41,0,0,1,.59-.06.4.4,0,0,1,0,.59c-.41.49-.84,1-1.26,1.43-.2.24-.41.47-.64.73l1.07,1.09c1,1,2,2,2.94,3a1.13,1.13,0,0,1,.26.59c.1.63.16,1.27.25,1.91,0,0,0,.08.09.14a4,4,0,0,1,3.25-1c0-.63,0-1.24,0-1.86a.5.5,0,0,0-.12-.24Q52.63,35.1,49.37,30a.58.58,0,0,0-.48-.31l-3.49-.29L41,29.07c-1.39-.11-2.77-.25-4.16-.33a5.41,5.41,0,0,1-2-.54L13.42,18.3l-.11,0v-.55h.83l2.52,1.18q9.21,4.24,18.4,8.5a6.64,6.64,0,0,0,2.36.57c1.93.15,3.87.32,5.8.49l4.9.4,1.23.11a.74.74,0,0,1,.56.41l2.23,3.45q2.25,3.48,4.51,7a1.25,1.25,0,0,1,.21.77c0,.54,0,1.07,0,1.61a.36.36,0,0,0,.25.4,4,4,0,0,1,2.07,2A7.81,7.81,0,0,1,60,47.24c0,.44,0,.89.08,1.34.55-.25,1.11-.52,1.69-.75a6.72,6.72,0,0,1,3.55-.41,4.5,4.5,0,0,1,3.6,3.73,8,8,0,0,1-.55,3.7,7.16,7.16,0,0,1-1.53,2.53,6.75,6.75,0,0,1-3,1.83c-3.34,1-6.7,2-10.05,3.06a.73.73,0,0,1-1-.51c-.93-3.3-1.88-6.6-2.78-9.91A10.94,10.94,0,0,1,49.77,50a.87.87,0,0,0-.42-.76c-3.25-2.09-6.49-4.21-9.74-6.3a2,2,0,0,0-.74-.16,31,31,0,0,1-5.54-1.22,9.19,9.19,0,0,1-2.58-1.52,1.53,1.53,0,0,1-.65-1.26c0-.17-.09-.19-.22-.21L25.18,38l-7.06-1-4.81-.64Zm27.77,7.43,8.6,5.59a8.84,8.84,0,0,1,.17-1.24.53.53,0,0,0-.29-.67L43.2,42.79a.53.53,0,0,0-.29-.08C42.32,42.77,41.73,42.85,41.08,42.93Zm10.72-.42c0-.35-.12-.64-.14-.94a1,1,0,0,0-.33-.64c-.89-.89-1.77-1.79-2.65-2.69l-1.07-1.08-.81.91c-.29.35-.27.47.1.75l4.68,3.55Zm4.37,4.08v-.33c0-.12,0-.25-.18-.25s-.22.09-.23.26a2.77,2.77,0,0,1-.12.92A3,3,0,0,1,53,49.4c-.16,0-.25.07-.25.26s.12.2.26.19a2.37,2.37,0,0,0,1.48-.44,7,7,0,0,0,1-.91A2.75,2.75,0,0,0,56.17,46.59Z"/><path class="cls-1" d="M40.85,81.7A40.85,40.85,0,1,1,81.7,40.85,40.9,40.9,0,0,1,40.85,81.7Zm0-77.32A36.47,36.47,0,1,0,77.32,40.85,36.51,36.51,0,0,0,40.85,4.38Z"/></svg>