<svg id="Capa_1" data-name="Capa 1" xmlns="http://www.w3.org/2000/svg" xmlns:xlink="http://www.w3.org/1999/xlink" viewBox="0 0 19.04 19.04"><defs><style>.cls-1{fill-rule:evenodd;fill:url(#Degradado_sin_nombre_14);}</style><linearGradient id="Degradado_sin_nombre_14" y1="9.52" x2="19.04" y2="9.52" gradientUnits="userSpaceOnUse"><stop offset="0" stop-color="#e1841f"/><stop offset="1" stop-color="#dd6618"/></linearGradient></defs><title>Mesa de trabajo 13</title><path class="cls-1" d="M9.51,0A9.52,9.52,0,1,0,19,9.51,9.51,9.51,0,0,0,9.51,0Zm2.72,9.4a.39.39,0,0,1,.56,0l.63.62V7.49a.4.4,0,1,1,.79,0V10l.64-.63a.39.39,0,0,1,.56,0,.39.39,0,0,1,0,.55L14,11.35a.28.28,0,0,1-.38,0L12.23,10A.39.39,0,0,1,12.23,9.4Zm4,3.24H11.4a.38.38,0,0,1,0-.75h4.84a.38.38,0,0,1,0,.75ZM3.73,4.74v9.55h7V6.48H9.16a.23.23,0,0,1-.22-.22V4.74ZM9.38,5V6.05h1.08Zm-4.67,2h.87v.87H4.71Zm1.84.22H9.48a.22.22,0,0,1,0,.44H6.55a.22.22,0,0,1,0-.44ZM4.71,8.65h.87v.87H4.71Zm1.84.22H9.48a.21.21,0,0,1,.22.21.22.22,0,0,1-.22.22H6.55a.21.21,0,0,1-.21-.22A.21.21,0,0,1,6.55,8.87ZM4.71,10.39h.87v.87H4.71Zm1.84.21H9.48a.22.22,0,0,1,0,.44H6.55a.22.22,0,0,1,0-.44ZM4.71,12.12h.87V13H4.71Zm1.84.22H9.48a.22.22,0,0,1,.22.22.21.21,0,0,1-.22.21H6.55a.21.21,0,0,1-.21-.21A.21.21,0,0,1,6.55,12.34Z"/></svg>