<svg id="Capa_1" data-name="Capa 1" xmlns="http://www.w3.org/2000/svg" xmlns:xlink="http://www.w3.org/1999/xlink" viewBox="0 0 42 50.28"><defs><style>.cls-1{fill:#e5e7e9;}</style><linearGradient id="Degradado_sin_nombre_14" x1="0.19" y1="25.14" x2="41.81" y2="25.14" gradientUnits="userSpaceOnUse"><stop offset="0" stop-color="#e1841f"/><stop offset="1" stop-color="#dd6618"/></linearGradient></defs><title>Mesa de trabajo 1 copia 5</title><path fill="#737B7F" class="cls-1" d="M29,7.74a11.08,11.08,0,0,1-5.06-1.82,14.56,14.56,0,0,0-6.09-2.28A21.77,21.77,0,0,0,9.68,4.88V4.25a2.38,2.38,0,0,0,.6-1.59A2.28,2.28,0,0,0,7.86.22h0A2.43,2.43,0,0,0,5.43,2.66,2.38,2.38,0,0,0,6,4.25V42.43A7.9,7.9,0,0,0,.19,50.06H16a7.9,7.9,0,0,0-6.31-7.74v-14c4.58-1.42,7.51-1.75,9.43-1.57a8.6,8.6,0,0,1,4.51,1.76,12.4,12.4,0,0,0,5.8,2.34,34.49,34.49,0,0,0,12.39-2.59V4.93C37.7,6.29,33.19,8.07,29,7.74Z"/></svg>
