<svg id="Layer_1" data-name="Layer 1" xmlns="http://www.w3.org/2000/svg" viewBox="0 0 81.7 81.7"><defs><style>.cls-1{fill:#e5e7e9;}</style></defs><title>Mesa de trabajo 43</title><path class="cls-1" d="M15,67.2h1.16L25.76,56a3,3,0,0,0,.18.53,1,1,0,0,0,.39.42.5.5,0,0,0,.47-.09.58.58,0,0,0,.08-.49c-.28-1.07-.64-2.14-.87-3.23a11.87,11.87,0,0,1-.21-2.23,17.83,17.83,0,0,1,1-6.39c.46-1.29.9-2.6,1.36-3.89a5.45,5.45,0,0,1,.46-.94,24.37,24.37,0,0,0,2.12-4.54,32.72,32.72,0,0,1,2.56-5.38.72.72,0,0,1,.11-.19,8.75,8.75,0,0,0,1.12-3.47c.36-1.68.73-3.36,1.07-5.05.15-.71.24-1.44.4-2.15a2.55,2.55,0,0,1,.38-.86.71.71,0,0,1,.76-.41.91.91,0,0,1,.75.69c0,.21.08.42.11.63a20.06,20.06,0,0,1-.09,4.17c-.05,1.06-.15,2.13-.23,3.19-.1,1.39-.19,2.79-.29,4.18,0,.32,0,.65-.07,1a.36.36,0,0,1-.24.25A3.22,3.22,0,0,0,35,33.2c-.82,1.3-1.67,2.59-2.47,3.92a3.57,3.57,0,0,0-.31,1.11c-.42,2.05-.78,4.11-1.25,6.15a25.93,25.93,0,0,1-1,2.68,10,10,0,0,0-.72,3.43,8.76,8.76,0,0,0,1.07,4.22c.53.94,1,1.91,1.49,2.87.06.12.13.28.23.33a.59.59,0,0,0,.46.06.58.58,0,0,0,.22-.41.72.72,0,0,0-.13-.38C32.1,56.1,31.57,55,31,54a7.82,7.82,0,0,1-.2-6.39,28.18,28.18,0,0,0,1.72-6.24c.2-1.07.42-2.14.64-3.2a6.22,6.22,0,0,1,1.06-2,1,1,0,0,1,.18.15,1.76,1.76,0,0,0,2,.58c1.26-.31,1.25-.33,2-1.39l.79-1.1.09,0c0,.14-.06.29-.11.42-.49,1.21-1,2.43-1.48,3.64a1.92,1.92,0,0,0-.08.92c0,.73,0,1.46,0,2.19,0,1.33,0,2.65,0,4a3.05,3.05,0,0,0,.06.6,3.62,3.62,0,0,1-.88,2.54,1.53,1.53,0,0,1-.11.16.42.42,0,0,0,0,.6.42.42,0,0,0,.62-.05,3,3,0,0,0,.39-.54c.17-.27.32-.54.5-.85A13.07,13.07,0,0,1,39,53.65a6.22,6.22,0,0,1-1.3,3.48c-1,1.2-1.9,2.46-2.88,3.67-1.15,1.42-2.35,2.8-3.52,4.21-.6.73-1.19,1.47-1.79,2.19h1.15c1.23-1.52,2.41-3.08,3.71-4.53s2.63-3.38,4-5a6.77,6.77,0,0,0,1.48-3.2,8.87,8.87,0,0,0,0-1.93c0-.49,0-1-.1-1.48a14.59,14.59,0,0,0-.91-4,6.16,6.16,0,0,1-.44-2.28c0-1.75,0-3.49,0-5.24a5,5,0,0,1,.64-2.21c.22-.48.41-1,.62-1.46.06-.15.14-.29.26-.53.26.54.47,1,.67,1.44s.34.91.56,1.34a3.12,3.12,0,0,1,.27,1.38c0,1.77,0,3.55,0,5.33a5.71,5.71,0,0,1-.45,2.24,17.54,17.54,0,0,0-.76,3.1,11.64,11.64,0,0,0,0,4.44,7.44,7.44,0,0,0,.64,1.5,18.54,18.54,0,0,0,3,4.58c.31.39.6.79.92,1.17,1.14,1.37,2.29,2.72,3.42,4.08.34.4.67.81,1,1.23h1.15c-1.48-1.8-3-3.61-4.42-5.41C45,60.52,44,59.28,43,58a17.94,17.94,0,0,1-1.24-2.13,7.17,7.17,0,0,1-.75-4,19.13,19.13,0,0,1,.73-3.69s0-.07.06-.15l.62,1a2.24,2.24,0,0,0,.29.38.44.44,0,0,0,.61,0,.42.42,0,0,0,0-.6c-.23-.37-.44-.75-.68-1.11a2.71,2.71,0,0,1-.29-1.81c0-.23.05-.46,0-.69,0-1.83-.09-3.66,0-5.49a4.93,4.93,0,0,0-.45-2.16c-.4-.93-.78-1.88-1.16-2.82a.68.68,0,0,1,0-.38l.16.16c.37.52.76,1,1.12,1.58a1.22,1.22,0,0,0,.81.55c.24.05.47.13.71.18a1.81,1.81,0,0,0,2-.59s0-.09.12-.18a6.31,6.31,0,0,1,1.11,2.09c.44,2.24.86,4.49,1.35,6.72a18.57,18.57,0,0,0,.68,1.84,26.52,26.52,0,0,1,.82,2.72,9.8,9.8,0,0,1,.05,1.8,7.19,7.19,0,0,1-1.12,3.46l-1.25,2.43a2.44,2.44,0,0,0-.14.28c-.07.24,0,.46.19.58a.42.42,0,0,0,.59-.2c.21-.37.4-.75.59-1.12.47-.93,1-1.85,1.4-2.78a7.2,7.2,0,0,0,.63-2.47,9.33,9.33,0,0,0-.86-4.81,21,21,0,0,1-1.25-4.51c-.28-1.45-.61-2.88-.86-4.32a2.84,2.84,0,0,0-.44-1c-.81-1.25-1.6-2.51-2.42-3.76A2.76,2.76,0,0,0,43,31.78c-.31-.07-.38-.22-.4-.49,0-.75-.08-1.5-.13-2.24-.12-1.69-.25-3.38-.37-5.06-.07-1.08-.12-2.16-.22-3.23a10.91,10.91,0,0,1,.15-2.21,1.06,1.06,0,0,1,.19-.52.77.77,0,0,1,1.39.07,5.71,5.71,0,0,1,.52,1.45c.56,2.7,1.11,5.4,1.61,8.11a7.53,7.53,0,0,0,.85,2c.68,1.36,1.39,2.71,2,4.08.29.59.47,1.24.72,1.85.38.92.76,1.84,1.18,2.74.21.46.53.88.76,1.34a10.07,10.07,0,0,1,.6,1.29c.48,1.34.94,2.69,1.41,4a19.26,19.26,0,0,1,.75,3.59,15.67,15.67,0,0,1-.15,4.93,29.42,29.42,0,0,1-.82,2.88.63.63,0,0,0,.07.49.55.55,0,0,0,.48.09.9.9,0,0,0,.38-.39,3.72,3.72,0,0,0,.18-.56c3.22,3.75,6.39,7.46,9.59,11.2H65c-.32-.36-.63-.73-1-1.1L54.7,55.2a.53.53,0,0,1-.13-.57,12.77,12.77,0,0,0,.48-3.69,17.65,17.65,0,0,0-.14-2.72,26.35,26.35,0,0,0-.72-3.4c-.32-1.16-.83-2.27-1.15-3.43a21.08,21.08,0,0,0-1.72-3.66,21,21,0,0,1-1-2.26c-.23-.64-.42-1.31-.71-1.92-.62-1.32-1.27-2.63-2-3.92a10.27,10.27,0,0,1-1.17-3.08c-.35-1.94-.8-3.85-1.17-5.78-.17-.85-.23-1.72-.37-2.57s-.28-1.49-.46-2.23a2.84,2.84,0,0,0-.81-1.68A1.4,1.4,0,0,0,41.2,15c-.11.64-.19,1.29-.26,1.94a4.84,4.84,0,0,0,0,.76c0,1.06,0,2.11,0,3.17.07,1.4.19,2.8.3,4.2.07,1.06.15,2.11.23,3.17s.14,2.23.2,3.35a.39.39,0,0,1-.17.31A2.77,2.77,0,0,0,40.23,33a2.16,2.16,0,0,1-.24.31,1.74,1.74,0,0,1-.11-.15,3,3,0,0,0-1.52-1.31.34.34,0,0,1-.12-.28c0-.51,0-1,.07-1.52l.3-4.18c.07-1,.15-2,.21-3,.08-1.27.18-2.53.23-3.8a17.14,17.14,0,0,0,0-2.15,14.67,14.67,0,0,0-.34-2.19,1.29,1.29,0,0,0-1.58-.87,1.86,1.86,0,0,0-1.34,1.28,15.45,15.45,0,0,0-.44,1.75c-.22,1.29-.38,2.59-.62,3.87-.29,1.53-.62,3.05-.94,4.57a10.82,10.82,0,0,1-1.37,4.21,3.44,3.44,0,0,0-.3.53,38.83,38.83,0,0,0-1.81,3.8,27.08,27.08,0,0,1-2.07,4.67,18.86,18.86,0,0,0-1.45,3.33A30,30,0,0,0,25.08,48,20.19,20.19,0,0,0,25,51.63,10,10,0,0,0,25.28,54a1.59,1.59,0,0,1-.41,1.7C21.57,59.52,18.29,63.37,15,67.2ZM42.14,15a.39.39,0,0,1,.57-.18,1.35,1.35,0,0,1,.59.54A15.19,15.19,0,0,1,43.77,17a1.67,1.67,0,0,0-1.93.18A5.25,5.25,0,0,1,42.14,15Zm1.08,17.9a4.23,4.23,0,0,1,1.46,1.54,2.92,2.92,0,0,1,.24.37c.08.21.4.35.25.62A1.17,1.17,0,0,1,44,36c-.32-.07-.63-.15-1-.25a.54.54,0,0,1-.27-.2c-.56-.76-1.11-1.53-1.66-2.3A1.72,1.72,0,0,1,43.22,32.87Zm-4.85,0a4.42,4.42,0,0,1,.55.37c-.58.8-1.1,1.54-1.64,2.27a.86.86,0,0,1-.45.3A2.83,2.83,0,0,1,35.6,36c-.41-.07-.57-.4-.81-.66,0,0,0-.15.05-.21A14,14,0,0,1,35.9,33.6,1.91,1.91,0,0,1,38.37,32.86ZM36.62,15.45a1,1,0,0,1,.67-.67.41.41,0,0,1,.58.24,5.88,5.88,0,0,1,.29,2.13A1.7,1.7,0,0,0,36.23,17C36.38,16.4,36.48,15.92,36.62,15.45Z"/><path class="cls-1" d="M40.85,81.7A40.85,40.85,0,1,1,81.7,40.85,40.9,40.9,0,0,1,40.85,81.7Zm0-77.32A36.47,36.47,0,1,0,77.32,40.85,36.51,36.51,0,0,0,40.85,4.38Z"/></svg>