<svg id="Layer_1" data-name="Layer 1" xmlns="http://www.w3.org/2000/svg" viewBox="0 0 81.7 81.7"><defs><style>.cls-1{fill:#e5e7e9;}</style></defs><title>Mesa de trabajo 42</title><path class="cls-1" d="M31.82,32.78l1.1-.91c.16-.13.31-.26.48-.38a.33.33,0,0,1,.48,0,.32.32,0,0,1,0,.47,1.62,1.62,0,0,1-.19.18l-1.77,1.46c-.16.14-.33.3-.57.19s-.23-.34-.23-.56c0-1.51,0-3,0-4.55a.47.47,0,0,0-.3-.47q-2-1.07-3.94-2.15a.54.54,0,0,1-.13-.07c-.1-.13-.27-.28-.26-.41s.18-.29.32-.35c.49-.21,1-.38,1.48-.56l2.79-1a.33.33,0,0,0,.26-.32c.11-1,.22-2,.33-3.06s.19-1.91.31-2.86a.6.6,0,0,1,.3-.38c.21-.1.35.09.47.25l3.53,5.16a3.92,3.92,0,0,0,.25.32.34.34,0,0,1,0,.52.36.36,0,0,1-.53,0,2.48,2.48,0,0,1-.19-.26l-3-4.38-.23-.31c-.08.79-.17,1.52-.24,2.26-.11,1-.22,2-.31,3a.75.75,0,0,1-.58.71c-1.17.41-2.33.85-3.5,1.28l-.31.13.25.15c1.16.63,2.31,1.28,3.48,1.9a.72.72,0,0,1,.44.74c0,1.31,0,2.62,0,3.93C31.8,32.53,31.81,32.62,31.82,32.78Z"/><path class="cls-1" d="M39.15,29.27c-.07.09-.11.22-.2.26a.6.6,0,0,1-.35,0c-.07,0-.13-.12-.17-.19-.34-.55-.67-1.1-1-1.66-.15-.25-.11-.45.08-.56s.42,0,.55.23l.9,1.54C39,29,39.08,29.12,39.15,29.27Z"/><path class="cls-1" d="M14.4,56.34a.87.87,0,0,1,.47.17l3.56,2.83.19.18-.88.5c-1.27.71-2.56,1.37-3.79,2.13h1.4l1.27-.7,6.48-3.63a.53.53,0,0,1,.65,0l6,4a.8.8,0,0,0,1,0c2.73-1.49,5.48-3,8.21-4.44a.46.46,0,0,1,.49,0c1.38.66,2.77,1.31,4.15,2a1,1,0,0,0,1,0c2.13-1.28,4.28-2.52,6.41-3.79a.53.53,0,0,1,.59,0l8.06,4a1.16,1.16,0,0,0,.82.1c1.49-.34,3-.67,4.49-1a.68.68,0,0,1,.49.07C67,59.86,68.54,61,70.1,62.15h1.18l-6.14-4.5L54.53,49.88c-1.16-.85-2.31-1.69-3.45-2.55a.79.79,0,0,0-.73-.16l-1.15.28c0-.15,0-.27,0-.38.07-2,.15-4,.23-6,0-.19.08-.24.25-.28.44-.09.91-.21,1-.72a5.5,5.5,0,0,0,0-2.25.36.36,0,0,0-.51-.28c-.18,0-.37.08-.52.11,0-.7,0-1.37,0-2,.09-2.32.19-4.63.28-6.95a.34.34,0,0,1,.27-.39c4.32-1.3,8.63-2.62,12.94-3.93.25-.07.57-.08.59-.43s-.31-.39-.55-.48L56,20.84l-5.69-2c-.48-.17-.67,0-.72.47,0,.07,0,.14,0,.21-.06,1.49-.11,3-.17,4.49l-.24,6.21c-.07,1.84-.12,3.68-.19,5.52l-.06,1.61a1,1,0,0,1-.09.42,4.37,4.37,0,0,1-.44.57,2.14,2.14,0,0,1-.86-1.14c-.33-1.42-.7-2.84-1-4.26a3.44,3.44,0,0,0-.86-1.51,2.07,2.07,0,0,0-1-.64,4.75,4.75,0,0,1-1-.4c-.4-.18-.4-.36-.06-.63a2.22,2.22,0,0,0,.95-1.65c0-1,0-1.94,0-2.91a1.47,1.47,0,0,0-.56-1.09,2.44,2.44,0,0,0-2.11-.51,2.3,2.3,0,0,0-1.57.88.83.83,0,0,0-.15.45c0,1,0,1.94,0,2.91a1.75,1.75,0,0,0,.62,1.37c.18.16.39.29.58.44s.19.26,0,.32a11.35,11.35,0,0,1-1.89.47,9.37,9.37,0,0,1-2.69-.15,1,1,0,0,1-.92-.77c-.25-.85-.49-1.71-.73-2.56-.05-.16,0-.22.15-.29s.3-.23.28-.31A.84.84,0,0,1,36,25.2a.48.48,0,0,0,.18-.43.59.59,0,0,0-.36-.35,1.77,1.77,0,0,0-.76,0,9,9,0,0,0-1.31.49c-1,.44-1,.47-.93,1.53v0c0,.53.14.65.67.64.18,0,.26.05.29.24.19,1,.4,2.05.58,3.08a1.42,1.42,0,0,0,1,1.23c.93.32,1.84.71,2.78,1a1.18,1.18,0,0,1,.81,1.19c0,.78,0,1.57,0,2.35a34.21,34.21,0,0,1-.47,7.56,12,12,0,0,0-.1,2.74c.12,1.59.34,3.17.54,4.75a.64.64,0,0,1-.23.59c-1.65,1.5-3.3,3-4.93,4.53a.83.83,0,0,1-.63.23l-8.57-.18a1.85,1.85,0,0,0-1,.26c-1.35.77-2.72,1.52-4.07,2.28a.31.31,0,0,1-.41,0c-1.31-1.07-2.64-2.13-4-3.17a1,1,0,0,0-.56-.21c-1.68-.07-3.36-.11-5-.17v.71a3.41,3.41,0,0,0,.43.06Zm35.85-36.8c4,1.45,8,2.86,11.92,4.28v.08L49.94,27.61C50,24.9,50.14,22.25,50.25,19.54ZM45,34.57h.1c.13.4.27.8.39,1.2.3,1,.58,2,.89,2.94a.85.85,0,0,0,.31.37,9.75,9.75,0,0,0,1,.57c.16.08.19.15.14.32-.16.56,0,.86.64.88.18,0,.23.07.23.25-.06,1.37-.11,2.75-.16,4.13,0,.72-.06,1.45-.08,2.17,0,.16,0,.25-.22.28l-2.68.61-.2,0c0-.24,0-.46,0-.68,0-.71.07-1.41.1-2.11a16.17,16.17,0,0,0-.3-4A17.24,17.24,0,0,1,45,39.24c0-1,0-2,0-3C45,35.67,45,35.12,45,34.57ZM42.08,45.21a1.18,1.18,0,0,0,.27-.12c0,1.26.07,2.46.11,3.67,0,.16,0,.26-.21.29a3.53,3.53,0,0,0-.46.1c0-.1,0-.2,0-.29,0-1,0-2,0-3.07C41.7,45.49,41.74,45.27,42.08,45.21Zm-17.58,12,7.84.14,1,0a1,1,0,0,0,.79-.29q3.84-3.54,7.68-7.05a1.31,1.31,0,0,1,.56-.29l8-1.85a.68.68,0,0,1,.6.19l12.3,9,1.25.93-1.77.4c-.76.16-1.51.34-2.27.49a1.18,1.18,0,0,1-.64-.08q-4.05-2-8.09-4a.83.83,0,0,0-.92,0l-6.45,3.8a.58.58,0,0,1-.62,0c-1.34-.65-2.69-1.27-4-1.93a1.07,1.07,0,0,0-1.12,0c-2.67,1.46-5.35,2.89-8,4.35a.48.48,0,0,1-.58,0q-2.76-1.86-5.54-3.7l-.3-.22Z"/><path class="cls-1" d="M40.85,81.7A40.85,40.85,0,1,1,81.7,40.85,40.9,40.9,0,0,1,40.85,81.7Zm0-77.32A36.47,36.47,0,1,0,77.32,40.85,36.51,36.51,0,0,0,40.85,4.38Z"/></svg>