<svg id="Capa_1" data-name="Capa 1" xmlns="http://www.w3.org/2000/svg" xmlns:xlink="http://www.w3.org/1999/xlink" viewBox="0 0 28.84 40"><defs><style>.cls-1{fill:url(#Degradado_sin_nombre_14);}</style><linearGradient id="Degradado_sin_nombre_14" y1="20" x2="28.84" y2="20" gradientUnits="userSpaceOnUse"><stop offset="0" stop-color="#e1841f"/><stop offset="1" stop-color="#dd6618"/></linearGradient></defs><title>Mesa de trabajo 14</title><path class="cls-1" d="M14.42,0A11.46,11.46,0,0,0,3.15,11.68v4.68h0c-2.06.21-3.15,2-3.15,4.12V35.87A4.11,4.11,0,0,0,4.1,40H24.74a4.11,4.11,0,0,0,4.1-4.13V20.49c0-2.14-1.09-3.92-3.16-4.13V11.68A11.46,11.46,0,0,0,14.42,0Zm0,4.53a7.18,7.18,0,0,1,7.21,7.18v4.65H7.21V11.71A7.17,7.17,0,0,1,14.42,4.53Zm0,17.74a3.16,3.16,0,0,1,3.15,3.18,3.19,3.19,0,0,1-1.43,2.67,2.09,2.09,0,0,1,.08.51v3.64a1.8,1.8,0,1,1-3.6,0V28.63a1.7,1.7,0,0,1,.08-.51,3.2,3.2,0,0,1-1.44-2.67A3.17,3.17,0,0,1,14.42,22.27Z"/></svg>