<svg id="Layer_1" data-name="Layer 1" xmlns="http://www.w3.org/2000/svg" viewBox="0 0 81.7 81.7"><defs><style>.cls-1{fill:#e5e7e9;}</style></defs><title>Mesa de trabajo 41</title><path class="cls-1" d="M9,53.49l2.92-.7a62,62,0,0,1,6.89-1.17c1.44-.19,2.89-.32,4.34-.48l.76-.1c.27,0,.35.08.39.46s-.17.21-.3.23c-2.58.31-5.17.59-7.75.93A71.75,71.75,0,0,0,9,54.17Z"/><path class="cls-1" d="M43.22,57.67c.64.38,1.23.71,1.81,1.07a1.76,1.76,0,0,1,.85.85,1.09,1.09,0,0,1-1.17,1.56,19.4,19.4,0,0,1-2.46-.56l-1.89-.51a.73.73,0,0,0-.36,0l-3.73,1a1.87,1.87,0,0,1-1.19,0,1.15,1.15,0,0,1-.26-1.91c.4-.31.85-.57,1.28-.84s.68-.41,1.06-.63l-.25-.13c-1.63-.69-3.27-1.37-4.89-2.07-.86-.38-1.73-.74-2.55-1.19a6.32,6.32,0,0,1-1.37-1,1.65,1.65,0,0,1-.29-1.59,2.18,2.18,0,0,1,2.12-1.93,6.16,6.16,0,0,1,3.35.37,15,15,0,0,1,1.63.87l.25.13c.47.26.72.14.75-.39s.08-1.18.11-1.76c.06-1.43.13-2.86.17-4.29a10,10,0,0,0-.7-3.77C35,39.55,34.26,38.34,33.78,37c-.21-.59-.44-1.17-.67-1.76a1.06,1.06,0,0,1,.17-1,28.3,28.3,0,0,1,3.15-3.5l1-1a3.64,3.64,0,0,0,.91-2.24c.11-.65.17-1.32.33-2a2.71,2.71,0,0,1,.56-.86.47.47,0,0,1,.39,0,.4.4,0,0,1,.18.31c0,1.53,0,3.06,0,4.58a1.12,1.12,0,0,1-.56,1,6.29,6.29,0,0,0-2.06,1.88c-.57.78-1.06,1.61-1.57,2.43a.49.49,0,0,0,0,.41c.12.31.29.6.43.9a11.2,11.2,0,0,0,2.69,3.49c0-.29,0-.55,0-.81a.6.6,0,0,0-.16-.29c-.27-.29-.54-.58-.84-.85a1.17,1.17,0,0,1-.39-.85c0-.89-.11-1.78-.12-2.67a8.41,8.41,0,0,1,.12-1.32,1.67,1.67,0,0,1,1.11-1.34,8.77,8.77,0,0,1,1.43-.44,3.06,3.06,0,0,1,1.6.26,3.6,3.6,0,0,1,.79.38,1.85,1.85,0,0,1,.82,1.69c0,1.11,0,2.23-.06,3.35,0,.63-.45,1-.81,1.37l0,0a1.27,1.27,0,0,0-.53,1.48c.47-.51.95-1,1.39-1.5a6.77,6.77,0,0,0,.75-1c.37-.64.69-1.31,1-2a.45.45,0,0,0,0-.29,13,13,0,0,0-2-2.93c-.11-.12-.23-.25-.33-.38a2.77,2.77,0,0,0-1.23-.94,1.16,1.16,0,0,1-.76-1.16c0-1.5,0-3,0-4.49,0-.19,0-.35.25-.39a.53.53,0,0,1,.54.2,3.9,3.9,0,0,1,.62,1.95c.1.59.18,1.18.3,1.76a3,3,0,0,0,1,1.45c.59.59,1.18,1.18,1.8,1.74a20.63,20.63,0,0,1,2.2,2.56,1,1,0,0,1,.18,1,36.9,36.9,0,0,1-2.11,4.87,6.55,6.55,0,0,0-.41,1.15c-.13.39-.24.78-.35,1.17a10.16,10.16,0,0,0-.22,3c0,1.26.14,2.52.21,3.78,0,.5,0,1,.07,1.5s.27.68.76.42a12.19,12.19,0,0,1,2.49-1.21,5.88,5.88,0,0,1,3.45,0A2.11,2.11,0,0,1,52.63,52a1.67,1.67,0,0,1-.7,1.58,10.63,10.63,0,0,1-1.13.76c-2.37,1.21-4.86,2.11-7.29,3.18Z"/><path class="cls-1" d="M72.59,42.93a.4.4,0,0,1-.32-.14l-7.8-8.48-7.2,5.91a.46.46,0,0,1-.32.1.45.45,0,0,1-.3-.16L40.11,19.78l-16,20.35a.51.51,0,0,1-.3.17.41.41,0,0,1-.32-.1l-7.29-5.88L9.7,41.61a.43.43,0,0,1-.62,0A.44.44,0,0,1,9,41l6.73-7.61a.45.45,0,0,1,.61-.05l7.26,5.87L39.76,18.81a.42.42,0,0,1,.34-.17.41.41,0,0,1,.34.16L57.06,39.26l7.17-5.89a.44.44,0,0,1,.6,0l8.08,8.79a.43.43,0,0,1,0,.62A.48.48,0,0,1,72.59,42.93Z"/><path class="cls-1" d="M71.91,55a.49.49,0,0,1-.25-.08c-2.6-1.88-15.38-3.22-15.5-3.23a.44.44,0,0,1-.4-.48.45.45,0,0,1,.49-.39c.53,0,13.13,1.38,15.92,3.38a.45.45,0,0,1,.1.62A.43.43,0,0,1,71.91,55Z"/><path class="cls-1" d="M40.85,81.7A40.85,40.85,0,1,1,81.7,40.85,40.9,40.9,0,0,1,40.85,81.7Zm0-77.32A36.47,36.47,0,1,0,77.32,40.85,36.51,36.51,0,0,0,40.85,4.38Z"/></svg>
