<svg id="Layer_1" data-name="Layer 1" xmlns="http://www.w3.org/2000/svg" xmlns:xlink="http://www.w3.org/1999/xlink" viewBox="0 0 83.99 62.5"><defs><style>.cls-1{fill:url(#Degradado_sin_nombre_14);}</style><linearGradient id="Degradado_sin_nombre_14" y1="31.25" x2="83.99" y2="31.25" gradientUnits="userSpaceOnUse"><stop offset="0" stop-color="#fc8600"/><stop offset="1" stop-color="#fc6600"/></linearGradient></defs><title>Mesa de trabajo 36</title><path class="cls-1" d="M8.79,1V47.91a1,1,0,0,0,1,1C21,48.83,29.35,51.47,40.5,60.55H2L2,8.79a1,1,0,0,0-1.09-1,1,1,0,0,0-.86,1L.06,61.52a1,1,0,0,0,1,1H83a1,1,0,0,0,1-1L83.92,8.79a1,1,0,1,0-2,0L82,60.55H43.49C54.64,51.47,63,48.83,74.22,48.89a1,1,0,0,0,1-1V1a1,1,0,0,0-1-1C58.59,0,51.39,6.78,42,12.51,32.59,6.78,25.4,0,9.77,0A1,1,0,0,0,8.79,1ZM4.88,6.84V51.76h2V6.84Zm72.27,0V51.76H79.1V6.84Z"/></svg>