<svg id="Layer_1" data-name="Layer 1" xmlns="http://www.w3.org/2000/svg" viewBox="0 0 81.7 81.7"><defs><style>.cls-1{fill:#e5e7e9;}</style></defs><title>Mesa de trabajo 40</title><path class="cls-1" d="M18.74,54.5a1.73,1.73,0,0,0,.45,1.09,1,1,0,0,1,.33,1c-.05.42-.06.85-.08,1.27-.12,1.83-.23,3.65-.35,5.47-.06.94-.13,1.87-.18,2.81s-.1,1.79-.15,2.71h1c.25-4.06.51-8.12.76-12.24.38.11.73.18,1.07.3a1.51,1.51,0,0,0,1.31-.07c1-.47,2-.83,2.95-1.23,2.91-1.2,5.82-2.38,8.72-3.59a1.72,1.72,0,0,0,.69-.62c1.27-2,2.52-3.91,3.77-5.87,0,0,.06-.07.11-.15.35.4.66.79,1,1.14Q45.38,51.73,50.64,57c.36.36.61.38,1,.05l7.58-6a.84.84,0,0,0,.34-.74c-.07-1.27-.13-2.55-.21-3.83a1.21,1.21,0,0,1,.69-1.4c.21.54.42,1.08.62,1.62s.31.61.86.59a.59.59,0,0,1,.64.37c.81,1.45,1.63,2.9,2.47,4.33a.87.87,0,0,1,0,1,13.31,13.31,0,0,1-2.12,2.19.77.77,0,0,1-.59.06c-.53-.11-1.06-.25-1.58-.4A1.17,1.17,0,0,0,59.2,55c-2.39,1.89-4.79,3.75-7.18,5.62-.91.71-1.82,1.4-2.72,2.12a.48.48,0,0,1-.66,0l-7.45-5.11c-.3-.2-.59-.51-1-.3s-.3.62-.29,1q.12,5.07.26,10.14v.33H63.38c-.17-1.53-.35-3-.52-4.58q-.39-3.39-.77-6.78C62,57,62,56.56,62,56.22a3.83,3.83,0,0,0,1.11-.45,30.13,30.13,0,0,0,2.23-2.29,1.44,1.44,0,0,0,.18-1.8c-.9-1.58-1.8-3.15-2.68-4.74a.91.91,0,0,0-1-.58c-.23,0-.34-.06-.42-.27-.21-.58-.45-1.15-.66-1.73a5,5,0,0,1-.22-.93c-.2-1.36-.32-2.73-.59-4.07A7.86,7.86,0,0,0,57.45,35a26.76,26.76,0,0,0-6.81-4.62l-.19-.12c.17-.4.34-.77.49-1.16a4.67,4.67,0,0,0,.3-.94c.22-1.18.43-2.36.59-3.54a14.89,14.89,0,0,0-.06-4.47,13.92,13.92,0,0,0-1.46-4,4.79,4.79,0,0,0-1.86-2,4,4,0,0,0-2.25-.77c-.66,0-1.32,0-2,.08a7,7,0,0,0-3.94,1.46c-.4.31-.82.6-1.27.93a9,9,0,0,0-2-2.67,3.69,3.69,0,0,0-1.18-.82A5.61,5.61,0,0,0,33.17,12a31.81,31.81,0,0,0-3.49.6,2.77,2.77,0,0,0-.91.29,10.76,10.76,0,0,0-2.94,2.21,14.57,14.57,0,0,0-1.33,1.61,8.53,8.53,0,0,0-1.42,5.43A5.66,5.66,0,0,0,24,24.75c.6.9,1.32,1.72,2,2.55s1.33,1.58,2,2.39l-.42.21c-.45.21-.92.38-1.35.62a10.2,10.2,0,0,0-3.38,2.85c-.08.11-.18.21-.27.32a8.73,8.73,0,0,0-1.78,3.84,36.62,36.62,0,0,0-.53,4.19c-.17,1.65-.3,3.3-.41,5a1.82,1.82,0,0,1-.73,1.62,1,1,0,0,0-.48.9A46.86,46.86,0,0,0,18.74,54.5Zm20.9-38.11a26.07,26.07,0,0,1,2.46-1.62,4.72,4.72,0,0,1,1.67-.47c.7-.11,1.41-.12,2.12-.16a3.58,3.58,0,0,1,2.1.66,4,4,0,0,1,1.56,1.69,13.39,13.39,0,0,1,1.5,4.67c.05.5,0,1,0,1.5a21.34,21.34,0,0,1-.72,5.62,7,7,0,0,1-.62,1.47.31.31,0,0,1-.29.11c-1.14-.33-2.27-.68-3.4-1a.72.72,0,0,1-.33-.29c-1-1.66-2-3.3-3-5-.53-1-.9-2-1.36-3-.59-1.28-1.2-2.55-1.79-3.83A.36.36,0,0,1,39.64,16.39ZM20.79,46c.07-1,.15-2.06.26-3.08.18-1.74.28-3.5.62-5.22a7.46,7.46,0,0,1,1.65-3.5c.13-.16.27-.3.39-.46a11.16,11.16,0,0,1,4.95-3.35.6.6,0,0,1,.41.1c.85.47,1.67,1,2.54,1.42a3.93,3.93,0,0,0,2.12.33,1.29,1.29,0,0,0,.53-.25l2.64-1.74.57,1.15c-.55.26-1.08.49-1.59.76s-1.21.64-1.81,1A2.56,2.56,0,0,0,32.92,35c-.76,3.85-1.49,7.7-2.23,11.55a.86.86,0,0,1-.48.67c-2.6,1.41-5.18,2.84-7.77,4.27l-.35.18-.46-1.51c-.29-.92-.63-1.82-.85-2.75A4.84,4.84,0,0,1,20.79,46Z"/><path class="cls-1" d="M40.85,81.7A40.85,40.85,0,1,1,81.7,40.85,40.9,40.9,0,0,1,40.85,81.7Zm0-77.32A36.47,36.47,0,1,0,77.32,40.85,36.51,36.51,0,0,0,40.85,4.38Z"/></svg>