<svg id="Layer_1" data-name="Layer 1" xmlns="http://www.w3.org/2000/svg" viewBox="0 0 81.7 81.7"><defs><style>.cls-1{fill:#e5e7e9;}</style></defs><title>Mesa de trabajo 39</title><path class="cls-1" d="M40.32,51.54a33.23,33.23,0,0,1-11-1.65,19.36,19.36,0,0,1-5.51-2.8,10.15,10.15,0,0,1-2.47-2.55,6,6,0,0,1,.18-7.16,12.2,12.2,0,0,1,3.77-3.27,24.61,24.61,0,0,1,7.18-2.68,35,35,0,0,1,6-.78,38.17,38.17,0,0,1,6.5.23,28.46,28.46,0,0,1,9.46,2.71,12.7,12.7,0,0,1,4.72,3.79A6.06,6.06,0,0,1,59,45a12.13,12.13,0,0,1-3.62,3.06,24.16,24.16,0,0,1-7.17,2.68,33.18,33.18,0,0,1-6,.78C41.57,51.56,40.94,51.54,40.32,51.54ZM36.48,31.42a33.71,33.71,0,0,0-4.9.86A22.47,22.47,0,0,0,25,35.05a10.2,10.2,0,0,0-3.25,3.12A5.27,5.27,0,0,0,21,42.45a7,7,0,0,0,2.15,3.31,15.83,15.83,0,0,0,4.83,3,27.63,27.63,0,0,0,6.25,1.74c.74.12,1.48.21,2.21.32a10.58,10.58,0,0,1-6-9.83A10.46,10.46,0,0,1,36.48,31.42Zm7.73,19.41c1.34-.24,2.7-.43,4-.72a22.68,22.68,0,0,0,7.14-2.76A10.44,10.44,0,0,0,59,44a5.24,5.24,0,0,0,.8-3.7,6.07,6.07,0,0,0-1.6-3.18,13.92,13.92,0,0,0-4.69-3.3,26.08,26.08,0,0,0-6.47-2c-.93-.17-1.86-.29-2.85-.44,4.09,2.15,6.2,5.48,6.08,10A10.44,10.44,0,0,1,44.21,50.83ZM40.3,38.46A3.5,3.5,0,1,0,36.79,42,3.52,3.52,0,0,0,40.3,38.46Z"/><path class="cls-1" d="M49.8,28.19l.11-.31c.73-2,1.47-4,2.2-6,.09-.26.25-.36.43-.3s.27.25.18.51c-.74,2-1.49,4-2.23,6.05-.07.18-.18.35-.39.29S49.89,28.27,49.8,28.19Z"/><path class="cls-1" d="M28.65,21.88c.19,0,.26.15.32.32.32.86.63,1.72,1,2.57.41,1.13.83,2.26,1.25,3.39a.56.56,0,0,0,0,.12.32.32,0,0,1-.17.45c-.21.08-.35,0-.43-.22-.16-.42-.31-.83-.46-1.25l-1.8-4.88C28.25,22.1,28.38,21.88,28.65,21.88Z"/><path class="cls-1" d="M31.06,52.53a1,1,0,0,1-.07.21l-2.22,6c-.06.16-.14.31-.34.29a.37.37,0,0,1-.27-.18.42.42,0,0,1,0-.33l1.59-4.34c.22-.57.43-1.15.64-1.73.12-.3.4-.38.57-.16A.88.88,0,0,1,31.06,52.53Z"/><path class="cls-1" d="M52.6,59.11c-.08.08-.18.23-.28.24a.42.42,0,0,1-.35-.18,5.2,5.2,0,0,1-.27-.69l-2-5.38-.06-.17a.3.3,0,0,1,.2-.41.29.29,0,0,1,.39.19c.11.26.21.53.3.79l2,5.34Z"/><path class="cls-1" d="M64.47,53c-.09.11-.16.26-.25.27a.47.47,0,0,1-.37-.11c-.38-.43-.72-.87-1.08-1.31l-3-3.72c-.07-.09-.16-.21-.15-.3s.11-.28.19-.29a.5.5,0,0,1,.39.13c.34.38.64.78,1,1.17,1,1.28,2.07,2.57,3.11,3.86C64.34,52.79,64.39,52.89,64.47,53Z"/><path class="cls-1" d="M16.78,27.88a2.5,2.5,0,0,1,.28.22l4.09,5.07c.17.2.16.4,0,.51s-.35,0-.48-.12q-2-2.52-4.07-5.06a.48.48,0,0,1-.07-.39C16.53,28,16.67,28,16.78,27.88Z"/><path class="cls-1" d="M21.12,47.51a2,2,0,0,1-.18.3q-2,2.5-4,5c-.2.26-.45.28-.58.07a.35.35,0,0,1,.07-.44L19.18,49c.42-.54.85-1.08,1.29-1.59a.51.51,0,0,1,.39-.15C21,47.26,21,47.41,21.12,47.51Z"/><path class="cls-1" d="M64.66,27.93c-.07.12-.1.22-.16.3l-4.06,5c-.17.22-.35.26-.51.13s-.16-.31,0-.53l4-5c.11-.14.23-.26.41-.18S64.57,27.83,64.66,27.93Z"/><path class="cls-1" d="M41.61,23.88V27c0,.08,0,.18,0,.23s-.2.24-.3.25-.23-.14-.31-.24,0-.17,0-.25V20.74a.87.87,0,0,1,0-.23.29.29,0,0,1,.32-.27.28.28,0,0,1,.3.28,2.84,2.84,0,0,1,0,.41Z"/><path class="cls-1" d="M41.41,57.1v3.23c0,.26-.12.42-.31.38a.58.58,0,0,1-.3-.24c0-.07,0-.19,0-.28V54c0-.38.11-.54.33-.54s.31.16.31.53Z"/><path class="cls-1" d="M40.85,81.7A40.85,40.85,0,1,1,81.7,40.85,40.9,40.9,0,0,1,40.85,81.7Zm0-77.32A36.47,36.47,0,1,0,77.32,40.85,36.51,36.51,0,0,0,40.85,4.38Z"/></svg>