<svg id="Layer_1" data-name="Layer 1" xmlns="http://www.w3.org/2000/svg" xmlns:xlink="http://www.w3.org/1999/xlink" viewBox="0 0 81.7 81.7"><defs><style>.cls-1{fill:url(#Degradado_sin_nombre_13);}.cls-2{fill:url(#Degradado_sin_nombre_13-2);}.cls-3{fill:url(#Degradado_sin_nombre_13-3);}.cls-4{fill:url(#Degradado_sin_nombre_13-4);}.cls-5{fill:url(#Degradado_sin_nombre_13-5);}.cls-6{fill:url(#Degradado_sin_nombre_13-6);}.cls-7{fill:url(#Degradado_sin_nombre_13-7);}.cls-8{fill:url(#Degradado_sin_nombre_13-8);}.cls-9{fill:url(#Degradado_sin_nombre_13-9);}.cls-10{fill:url(#Degradado_sin_nombre_13-10);}.cls-11{fill:url(#Degradado_sin_nombre_13-11);}</style><linearGradient id="Degradado_sin_nombre_13" x1="15.54" y1="55.33" x2="38.58" y2="55.33" gradientUnits="userSpaceOnUse"><stop offset="0" stop-color="#fc8600"/><stop offset="1" stop-color="#fc6600"/></linearGradient><linearGradient id="Degradado_sin_nombre_13-2" x1="39.52" y1="26.7" x2="69.09" y2="26.7" xlink:href="#Degradado_sin_nombre_13"/><linearGradient id="Degradado_sin_nombre_13-3" x1="15.88" y1="44.69" x2="25.38" y2="44.69" xlink:href="#Degradado_sin_nombre_13"/><linearGradient id="Degradado_sin_nombre_13-4" x1="28.8" y1="45.4" x2="38.28" y2="45.4" xlink:href="#Degradado_sin_nombre_13"/><linearGradient id="Degradado_sin_nombre_13-5" x1="28.18" y1="38.6" x2="34.32" y2="38.6" xlink:href="#Degradado_sin_nombre_13"/><linearGradient id="Degradado_sin_nombre_13-6" x1="21.05" y1="38.43" x2="26.96" y2="38.43" xlink:href="#Degradado_sin_nombre_13"/><linearGradient id="Degradado_sin_nombre_13-7" x1="26.5" y1="43.52" x2="28.51" y2="43.52" xlink:href="#Degradado_sin_nombre_13"/><linearGradient id="Degradado_sin_nombre_13-8" x1="34.68" y1="28.68" x2="38.76" y2="28.68" xlink:href="#Degradado_sin_nombre_13"/><linearGradient id="Degradado_sin_nombre_13-9" x1="35.95" y1="36.33" x2="39.38" y2="36.33" xlink:href="#Degradado_sin_nombre_13"/><linearGradient id="Degradado_sin_nombre_13-10" x1="36.19" y1="32.36" x2="38.81" y2="32.36" xlink:href="#Degradado_sin_nombre_13"/><linearGradient id="Degradado_sin_nombre_13-11" x1="0" y1="40.85" x2="81.7" y2="40.85" xlink:href="#Degradado_sin_nombre_13"/></defs><title>Mesa de trabajo 38</title><path class="cls-1" d="M36.54,65.7c0-.49.08-1,.11-1.42.1-1.3.2-2.59.29-3.89,0-.17.08-.25.27-.25a4.74,4.74,0,0,0,.84,0,.58.58,0,0,0,.52-.68c-.09-.83-.19-1.65-.28-2.47a.72.72,0,0,0-.87-.76l-5.28.2-6.33.23H25.3c0-.16,0-.28,0-.4.07-1.46.15-2.92.22-4.38a2.64,2.64,0,0,1,.36-1.32,5.77,5.77,0,0,0,.63,1,11.65,11.65,0,0,0,1.43,1.29,3,3,0,0,0,1.62.61,5.3,5.3,0,0,0,2.71-.53c.81-.38.83-.39.7-1.27a3.25,3.25,0,0,0-1.29-2.26,4.07,4.07,0,0,0-1.11-.54,4.65,4.65,0,0,0-3.55.07c-.21.09-.42.21-.65.33.25-.64.49-1.25.74-1.87.17-.44.35-.87.51-1.31a.76.76,0,0,0-.57-1c-.39-.14-.69,0-.87.45-.78,2-1.73,3.85-2.39,5.86h0L23.45,51a3.62,3.62,0,0,0-3.7-.93,6.61,6.61,0,0,0-3.7,3,.31.31,0,0,0,.07.47,4.08,4.08,0,0,0,.95.54c.73.22,1.47.39,2.22.54A3.61,3.61,0,0,0,22.08,54c.41-.29.82-.57,1.24-.84a2.63,2.63,0,0,1,.49-.15c0,.42,0,.75-.07,1.09,0,.79-.07,1.58-.1,2.37,0,.16-.05.24-.23.24-.83,0-1.67.08-2.51.1l-4.41.12a2.63,2.63,0,0,0-.39.06.68.68,0,0,0-.55.85c.14.72.29,1.44.45,2.15a1,1,0,0,0,.9.81,7.52,7.52,0,0,0,.82,0c.17,0,.24,0,.27.23.13,1,.28,2.07.43,3.1.07.51.14,1,.21,1.57Z"/><path class="cls-2" d="M45.86,16.87l-1.8,3.56c-.25.5-.22.6.25.88l9.45,5.49,5.39,3.08,2.67,1.54c.4.23.58.2.85-.18a8.65,8.65,0,0,0,.69-1.12C64.93,26.75,66.48,23.37,68,20a4.63,4.63,0,0,0,.34-.71.72.72,0,0,0-.45-.89l-1.66-.78c-.1.2-.21.39-.31.57l-5.07,9.6a1,1,0,0,1-1.08.56,1.55,1.55,0,0,1-.73-.25l-9.9-6,0,0c-1-.58-1.11-1-.54-2s1.22-2.16,1.82-3.25h.74c0,.12-.1.24-.16.36L49.18,20.5a1.28,1.28,0,0,0-.18.44.4.4,0,0,0,.12.34c1.12.7,2.25,1.38,3.39,2.06l7,4.2c.4.24.67.19.88-.2l5.2-9.84a1.38,1.38,0,0,0,.08-.17l-.83-.46h1.53c.62.3,1.24.62,1.88.9a1.51,1.51,0,0,1,.7,2.06,10.4,10.4,0,0,0-.54,1.05l-4.49,9.69a7.51,7.51,0,0,1-.7,1.15,1.16,1.16,0,0,1-1.6.33A18.74,18.74,0,0,1,60,31.1a2.05,2.05,0,0,0-1.5-.3c-1.3.15-2.6.27-3.9.4l-4.32.43L46.5,32,43,32.33l-.11.05c0,.42.07.85.1,1.28.06.69.12,1.39.16,2.08a.53.53,0,0,1-.5.58,11.55,11.55,0,0,1-1.2.19.78.78,0,0,1-1-.72c-.12-.78-.2-1.57-.29-2.35-.14-1.27-.29-2.54-.43-3.81-.06-.55-.14-1.11-.18-1.66a1.37,1.37,0,0,1,0-.53.45.45,0,0,1,.46-.35c.57,0,1.15,0,1.72,0a.6.6,0,0,1,.67.63c0,.46.08.92.13,1.43L54,27.76l-.23-.16c-3.14-1.79-6.27-3.57-9.4-5.37a5.88,5.88,0,0,1-.77-.57,1,1,0,0,1-.28-1.35c.58-1.15,1.18-2.29,1.77-3.44ZM42.78,31.68l15.47-1.52L58,30c-.89-.5-1.78-1-2.68-1.51a.94.94,0,0,0-.5-.1c-.36,0-.73.08-1.09.12l-4,.47-4.12.49-2.72.33c-.12,0-.22,0-.21.19C42.69,30.52,42.73,31.08,42.78,31.68Zm-1.73-3.93h-.57c-.2,0-.29.07-.27.29.07.58.13,1.16.19,1.74l.66,5.77c0,.28.11.34.39.29a5,5,0,0,1,.66-.11c.27,0,.33-.15.31-.39-.07-.68-.12-1.37-.18-2.05-.14-1.62-.27-3.23-.41-4.84C41.77,27.74,41.76,27.74,41.05,27.75Z"/><path class="cls-3" d="M25.38,44.39A1.87,1.87,0,0,1,24.54,46a5.87,5.87,0,0,1-2.72.94,6.88,6.88,0,0,1-3.68-.78,16.66,16.66,0,0,1-1.75-1,1,1,0,0,1-.17-.14c-.52-.46-.45-.83.22-1l1.79-.52c1.14-.31,2.28-.64,3.43-.9a5.53,5.53,0,0,1,1.67-.14,2.45,2.45,0,0,1,2,1.41A2,2,0,0,1,25.38,44.39Z"/><path class="cls-4" d="M31.38,47.68a3,3,0,0,1-2.12-.9,1.47,1.47,0,0,1-.12-2A3.3,3.3,0,0,1,31,43.56a13,13,0,0,1,4.34-.39,6.48,6.48,0,0,1,2.37.7,1.18,1.18,0,0,1,.19.11c.47.38.48.73,0,1s-.77.35-1.15.55c-.68.36-1.34.76-2,1.1a8.91,8.91,0,0,1-2.82,1Z"/><path class="cls-5" d="M34.31,35.89A11.52,11.52,0,0,1,32.71,41a2.65,2.65,0,0,1-4,.62,1.42,1.42,0,0,1-.52-1.25,3.21,3.21,0,0,1,.14-1,4.75,4.75,0,0,1,2-2.59,18.67,18.67,0,0,1,3-1.74c.75-.31,1-.17.93.64C34.32,35.78,34.31,35.83,34.31,35.89Z"/><path class="cls-6" d="M21.08,35.44v-.2c0-.55.35-.79.85-.52a4.64,4.64,0,0,1,1,.65c1.07,1,2.1,1.94,3.15,2.91a5.44,5.44,0,0,1,.47.49,2.48,2.48,0,0,1,0,2.82,2.3,2.3,0,0,1-3.12.11,4.74,4.74,0,0,1-1.25-2c-.31-1-.63-1.94-.91-2.93a11.81,11.81,0,0,1-.18-1.33Z"/><path class="cls-7" d="M26.5,43.57a1.1,1.1,0,0,1,1.18-1.13c.44,0,.83.55.83,1.15a1,1,0,0,1-1.06,1A1,1,0,0,1,26.5,43.57Z"/><path class="cls-8" d="M38.44,29.48l-1.25-.33-2.08-.56c-.08,0-.19,0-.23-.09s-.22-.27-.19-.37.22-.19.36-.24a.58.58,0,0,1,.27.06l3,.8.19.06c.17.07.31.21.23.39S38.53,29.41,38.44,29.48Z"/><path class="cls-9" d="M36.33,37.61c-.32,0-.47-.26-.33-.48a.61.61,0,0,1,.2-.19l2.48-1.74.17-.1c.18-.08.36-.09.47.1a.33.33,0,0,1-.14.48l-1.42,1-1.16.81A1.77,1.77,0,0,1,36.33,37.61Z"/><path class="cls-10" d="M38.56,31.85c.06,0,.21.11.24.21a.46.46,0,0,1-.08.35c0,.08-.17.12-.26.14l-1.83.32c-.21,0-.39,0-.44-.26a.32.32,0,0,1,.29-.39C37.15,32.09,37.82,32,38.56,31.85Z"/><path class="cls-11" d="M40.85,81.7A40.85,40.85,0,1,1,81.7,40.85,40.9,40.9,0,0,1,40.85,81.7Zm0-77.32A36.47,36.47,0,1,0,77.32,40.85,36.51,36.51,0,0,0,40.85,4.38Z"/></svg>