<svg id="Layer_1" data-name="Layer 1" xmlns="http://www.w3.org/2000/svg" xmlns:xlink="http://www.w3.org/1999/xlink" viewBox="0 0 81.7 81.7"><defs><style>.cls-1{fill:url(#Degradado_sin_nombre_13);}.cls-2{fill:url(#Degradado_sin_nombre_13-2);}.cls-3{fill:url(#Degradado_sin_nombre_13-3);}.cls-4{fill:url(#Degradado_sin_nombre_13-4);}.cls-5{fill:url(#Degradado_sin_nombre_13-5);}.cls-6{fill:url(#Degradado_sin_nombre_13-6);}.cls-7{fill:url(#Degradado_sin_nombre_13-7);}.cls-8{fill:url(#Degradado_sin_nombre_13-8);}.cls-9{fill:url(#Degradado_sin_nombre_13-9);}.cls-10{fill:url(#Degradado_sin_nombre_13-10);}</style><linearGradient id="Degradado_sin_nombre_13" y1="40.85" x2="81.7" y2="40.85" gradientUnits="userSpaceOnUse"><stop offset="0" stop-color="#fc8600"/><stop offset="1" stop-color="#fc6600"/></linearGradient><linearGradient id="Degradado_sin_nombre_13-2" x1="21.71" y1="40.68" x2="60.44" y2="40.68" xlink:href="#Degradado_sin_nombre_13"/><linearGradient id="Degradado_sin_nombre_13-3" x1="27.38" y1="50.4" x2="36.24" y2="50.4" xlink:href="#Degradado_sin_nombre_13"/><linearGradient id="Degradado_sin_nombre_13-4" x1="46.07" y1="50.41" x2="54.9" y2="50.41" xlink:href="#Degradado_sin_nombre_13"/><linearGradient id="Degradado_sin_nombre_13-5" x1="27.36" y1="31.4" x2="36.16" y2="31.4" xlink:href="#Degradado_sin_nombre_13"/><linearGradient id="Degradado_sin_nombre_13-6" x1="45.99" y1="31.4" x2="54.8" y2="31.4" xlink:href="#Degradado_sin_nombre_13"/><linearGradient id="Degradado_sin_nombre_13-7" x1="14.11" y1="40.84" x2="17.87" y2="40.84" xlink:href="#Degradado_sin_nombre_13"/><linearGradient id="Degradado_sin_nombre_13-8" x1="40.13" y1="17.29" x2="42.64" y2="17.29" xlink:href="#Degradado_sin_nombre_13"/><linearGradient id="Degradado_sin_nombre_13-9" x1="40.17" y1="64.35" x2="42.6" y2="64.35" xlink:href="#Degradado_sin_nombre_13"/><linearGradient id="Degradado_sin_nombre_13-10" x1="65.38" y1="40.84" x2="67.58" y2="40.84" xlink:href="#Degradado_sin_nombre_13"/></defs><title>Mesa de trabajo 37</title><path class="cls-1" d="M40.85,81.7A40.85,40.85,0,1,1,81.7,40.85,40.9,40.9,0,0,1,40.85,81.7Zm0-77.32A36.47,36.47,0,1,0,77.32,40.85,36.51,36.51,0,0,0,40.85,4.38Z"/><path class="cls-2" d="M41.27,20.87l.18.67,3,12.35c.21.85.41,1.69.61,2.54a.4.4,0,0,0,.33.34l11.83,2.95,3,.74a.42.42,0,0,1,.23.16l-.36.11L45.56,44.92a.53.53,0,0,0-.42.42q-1.89,7.36-3.81,14.72l-.13.43h-.09L41,60.1q-1.7-6.7-3.41-13.41c-.12-.47-.26-.94-.35-1.41a.49.49,0,0,0-.42-.42L27,42.34,22,41a2.35,2.35,0,0,1-.25-.1c.16-.06.23-.1.31-.12l9.79-2.74,5.09-1.42a.48.48,0,0,0,.39-.4c1.09-4.37,2.2-8.73,3.3-13.09L41.13,21a.78.78,0,0,1,0-.14ZM59.09,40.72v-.09H41.54l.32.37c1,1.12,2,2.24,3,3.37a.67.67,0,0,0,.8.23c4.22-1.24,8.45-2.45,12.68-3.67Zm-18,.2L41,41c-1.14,1.24-2.28,2.47-3.41,3.72a.58.58,0,0,0-.09.45c1.15,4.69,2.32,9.39,3.48,14.08a1.3,1.3,0,0,0,.08.17h.08ZM23,40.75v.07l18-.23-.29-.32c-1-1.05-2.09-2.1-3.13-3.16A.55.55,0,0,0,37,37c-3.37.93-6.75,1.83-10.12,2.75ZM41.3,21.85V40.24l.14.07a2.75,2.75,0,0,1,.23-.33c.94-1,1.87-2,2.81-2.95a.78.78,0,0,0,.23-.81Q43.36,30.6,42,25C41.79,23.93,41.55,22.9,41.3,21.85Z"/><path class="cls-3" d="M27.38,55c.09-.16.13-.26.18-.36,1.58-2.89,3.17-5.78,4.74-8.68.1-.18.19-.26.41-.2.89.26,1.79.49,2.67.75a.5.5,0,0,1,.3.33c.2.82.36,1.66.55,2.49a.36.36,0,0,1-.2.43l-8.41,5.15A2.21,2.21,0,0,1,27.38,55Zm8-8.06-6.92,7,.05.06.14-.07,7-4.4a.34.34,0,0,0,.17-.42c-.1-.47-.19-1-.29-1.43C35.5,47.48,35.45,47.26,35.39,47Z"/><path class="cls-4" d="M54.9,55l-.28-.14-8.28-5.07a.43.43,0,0,1-.24-.57c.19-.8.33-1.6.52-2.4a.49.49,0,0,1,.31-.32c.88-.27,1.78-.49,2.67-.75a.27.27,0,0,1,.37.15l4.86,8.91A1,1,0,0,1,54.9,55Zm-1-.91,0-.06-7-7.11c0,.18-.08.3-.1.41-.12.59-.23,1.19-.37,1.77a.42.42,0,0,0,.22.51c1.43.87,2.84,1.75,4.26,2.63Z"/><path class="cls-5" d="M27.42,26.77l1.35.83L35.91,32a.44.44,0,0,1,.23.56c-.19.8-.34,1.62-.53,2.43a.5.5,0,0,1-.29.3l-2.7.75a.25.25,0,0,1-.35-.14L27.41,27s0-.09-.05-.14Zm7.91,8.09.08-.29c.1-.64.19-1.27.32-1.9a.48.48,0,0,0-.26-.58c-2.36-1.48-4.7-3-7-4.47l-.26-.14,0,0Z"/><path class="cls-6" d="M54.8,26.83a.77.77,0,0,1-.08.19l-4.81,8.82a.28.28,0,0,1-.37.16c-.9-.26-1.8-.5-2.7-.74a.38.38,0,0,1-.3-.34c-.17-.83-.34-1.65-.53-2.47a.36.36,0,0,1,.2-.45l4.46-2.73,3.82-2.34.26-.15Zm-.8.92,0,0-7.05,7.2.37.11c.7.19,1.41.36,2.1.56a.36.36,0,0,0,.49-.21c.73-1.38,1.48-2.74,2.22-4.11Z"/><path class="cls-7" d="M15.28,41.15c.09-.6.18-1.21.25-1.81,0-.19.09-.27.27-.25H16c.45,0,.44,0,.51.46s.15,1.06.26,1.59c.06-.59.13-1.18.18-1.77,0-.23.13-.29.34-.29.7,0,.63,0,.52.6-.15.87-.3,1.73-.44,2.6,0,.24-.14.33-.39.32-.86,0-.67.14-.8-.74,0-.2-.05-.4-.08-.59a2.58,2.58,0,0,0-.12-.59c-.07.53-.16,1-.21,1.58,0,.26-.11.35-.38.34-.69,0-.7,0-.82-.68-.15-.87-.3-1.74-.44-2.6a1.72,1.72,0,0,1,0-.23,4.64,4.64,0,0,1,.75,0c.08,0,.17.19.18.3.08.57.13,1.15.2,1.73Z"/><path class="cls-8" d="M41,17.26c0,.51,0,1,0,1.46,0,.26-.09.32-.33.32-.72,0-.58,0-.58-.58,0-.87,0-1.74,0-2.61,0-.25.08-.32.32-.32.74,0,.74,0,.94.71.08.32.17.64.26,1,0,0,0,0,.06.07,0-.5,0-1,0-1.42,0-.22.06-.33.3-.32.71,0,.63-.09.63.63s0,1.68,0,2.52c0,.27-.08.37-.35.36-.69,0-.69,0-.88-.66-.11-.36-.21-.72-.31-1.07C41.1,17.3,41.09,17.29,41,17.26Z"/><path class="cls-9" d="M41.36,66.17a6,6,0,0,1-.61-.11.81.81,0,0,1-.57-.89s0-.09,0-.09c.24,0,.48-.07.72-.08.06,0,.13.11.19.18a1.84,1.84,0,0,0,.26.29s.22-.1.22-.16a.56.56,0,0,0-.12-.4,4.55,4.55,0,0,0-.66-.34,1,1,0,0,1-.59-1.08.94.94,0,0,1,.9-.94,2.42,2.42,0,0,1,.71,0,.86.86,0,0,1,.69.88s0,.12,0,.12a5.51,5.51,0,0,1-.7.06c-.06,0-.13-.11-.2-.18a1,1,0,0,0-.22-.24s-.2.09-.2.13,0,.32.11.38a5.58,5.58,0,0,0,.69.35,1,1,0,0,1,.63.86C42.66,65.74,42.24,66.14,41.36,66.17Z"/><path class="cls-10" d="M65.38,40.84V39.38c0-.22.08-.3.29-.3q.78,0,1.56,0c.2,0,.26.09.27.28,0,.54,0,.54-.52.54h-.37c-.19,0-.28,0-.28.26s.11.25.29.25a2.06,2.06,0,0,1,.43,0c.13,0,.33.05.34.12a1.56,1.56,0,0,1,0,.57s-.12.06-.18.07a3.13,3.13,0,0,1-.53,0c-.25,0-.34.06-.35.33s.13.33.36.31.27,0,.41,0c.42,0,.6.27.43.67a.28.28,0,0,1-.22.11H65.62c-.2,0-.24-.1-.24-.27Z"/></svg>