<svg id="Capa_1" data-name="Capa 1" xmlns="http://www.w3.org/2000/svg" xmlns:xlink="http://www.w3.org/1999/xlink" viewBox="0 0 36.67 48.82"><defs><style>.cls-1{fill:url(#Degradado_sin_nombre_14);}.cls-2{fill:url(#Degradado_sin_nombre_14-2);}</style><linearGradient id="Degradado_sin_nombre_14" y1="24.41" x2="36.67" y2="24.41" gradientUnits="userSpaceOnUse"><stop offset="0" stop-color="#e1841f"/><stop offset="1" stop-color="#dd6618"/></linearGradient><linearGradient id="Degradado_sin_nombre_14-2" x1="6.67" y1="20.06" x2="36.67" y2="20.06" xlink:href="#Degradado_sin_nombre_14"/></defs><title>Mesa de trabajo 1 copia 3</title><path class="cls-1" d="M1.55,43.7A3.57,3.57,0,0,1,5,40.13V0H4.76A4.77,4.77,0,0,0,0,4.77V44.06a4.78,4.78,0,0,0,4.76,4.76H36.67V47.27H5.12A3.57,3.57,0,0,1,1.55,43.7Z"/><polygon class="cls-2" points="34.26 0 34.26 10.38 30.44 7.09 26.88 10.38 26.88 0 6.67 0.01 6.67 40.13 36.67 40.13 36.67 0 34.26 0"/></svg>