<svg id="Capa_1" data-name="Capa 1" xmlns="http://www.w3.org/2000/svg" xmlns:xlink="http://www.w3.org/1999/xlink" viewBox="0 0 22.15 22.14"><defs><style>.cls-1{fill:url(#Degradado_sin_nombre_14);}.cls-2{fill:url(#Degradado_sin_nombre_14-2);}.cls-3{fill:url(#Degradado_sin_nombre_14-3);}</style><linearGradient id="Degradado_sin_nombre_14" x1="-0.24" y1="11.14" x2="13.01" y2="11.06" gradientUnits="userSpaceOnUse"><stop offset="0" stop-color="#e1841f"/><stop offset="1" stop-color="#dd6618"/></linearGradient><linearGradient id="Degradado_sin_nombre_14-2" x1="-0.24" y1="11.13" x2="13.01" y2="11.05" xlink:href="#Degradado_sin_nombre_14"/><linearGradient id="Degradado_sin_nombre_14-3" x1="-0.24" y1="11.13" x2="13.01" y2="11.05" xlink:href="#Degradado_sin_nombre_14"/></defs><title>Mesa de trabajo 22</title><path class="cls-1" d="M11.08,0A11.07,11.07,0,1,1,0,11,11.06,11.06,0,0,1,11.08,0Zm6.24,11.18c0-.77,0-1.38-.05-2,0-.42,0-.85-.05-1.27a3.27,3.27,0,0,0-1-2,3,3,0,0,0-2-1c-.55-.05-1.12-.08-1.68-.08L8.3,4.9A3.28,3.28,0,0,0,7,5.18,3.35,3.35,0,0,0,5,8c-.07.61-.09,1.22-.1,1.84,0,.81,0,1.63,0,2.45,0,.66,0,1.32.12,2a3.35,3.35,0,0,0,2.59,2.84A7.1,7.1,0,0,0,9,17.23c1.52,0,3,.05,4.56,0A5,5,0,0,0,15,17a3.48,3.48,0,0,0,2.24-3.1C17.27,12.94,17.3,12,17.32,11.18Z"/><path class="cls-2" d="M16.28,11.14c0,.94,0,1.88-.08,2.82a2.26,2.26,0,0,1-1.95,2.14,10.85,10.85,0,0,1-1.71.13c-1,0-2.1,0-3.16,0a7.44,7.44,0,0,1-1.56-.16A2.31,2.31,0,0,1,6,13.91,41.25,41.25,0,0,1,5.9,9.75c0-.53,0-1.05.08-1.58A2.33,2.33,0,0,1,8.11,6l.37,0c.87,0,1.73,0,2.6,0s1.77,0,2.66,0a2.51,2.51,0,0,1,1.79.75,2.17,2.17,0,0,1,.64,1.41c.06.7.07,1.42.09,2.13,0,.31,0,.62,0,.92Zm-5.18,3.1A3.26,3.26,0,0,0,14.24,11a3.27,3.27,0,0,0-3.17-3.12,3.25,3.25,0,0,0-3.15,3.22A3.25,3.25,0,0,0,11.1,14.24Zm3.24-7.08h-.22a.5.5,0,0,0-.46.36c-.14.55,0,1.07.78,1A.56.56,0,0,0,15,8a2.17,2.17,0,0,0,0-.36.51.51,0,0,0-.43-.44Z"/><path class="cls-3" d="M9,11.14a2.1,2.1,0,1,1,4.2-.08,2.16,2.16,0,0,1-2.09,2.13A2.13,2.13,0,0,1,9,11.14Z"/></svg>