<svg id="Capa_1" data-name="Capa 1" xmlns="http://www.w3.org/2000/svg" xmlns:xlink="http://www.w3.org/1999/xlink" viewBox="0 0 22.06 22.08"><defs><style>.cls-1{fill:url(#Degradado_sin_nombre_14);}</style><linearGradient id="Degradado_sin_nombre_14" x1="10.35" y1="-2.52" x2="12.19" y2="34.17" gradientUnits="userSpaceOnUse"><stop offset="0" stop-color="#e1841f"/><stop offset="1" stop-color="#dd6618"/></linearGradient></defs><title>Mesa de trabajo 20</title><path class="cls-1" d="M11,0a11,11,0,1,0,11,11.07A11.06,11.06,0,0,0,11,0Zm6.79,7.26a5.89,5.89,0,0,1-.65.57.37.37,0,0,0-.15.31,9,9,0,0,1-3.14,7A8.13,8.13,0,0,1,9.5,17.12a9,9,0,0,1-4.36-.45,7.44,7.44,0,0,1-1.64-.83A6.48,6.48,0,0,0,8,14.54a3.21,3.21,0,0,1-2.9-2.18H6.43v0A3.17,3.17,0,0,1,4,9.27l1.34.38,0-.06a3.2,3.2,0,0,1-.92-4.15A8.88,8.88,0,0,0,10.82,8.7a8,8,0,0,1,0-1,3,3,0,0,1,2-2.62,3,3,0,0,1,3.27.65.27.27,0,0,0,.29.08A6.45,6.45,0,0,0,18,5.22l.2-.09a3.56,3.56,0,0,1-1.27,1.7c.27-.06.55-.1.82-.18s.54-.18.85-.24C18.31,6.7,18.08,7,17.83,7.26Z"/></svg>