<svg id="Layer_1" data-name="Layer 1" xmlns="http://www.w3.org/2000/svg" viewBox="0 0 81.7 81.7"><defs><style>.cls-1{fill:#e5e7e9;}</style></defs><title>Mesa de trabajo 45_1</title><path class="cls-1" d="M21.67,15.35c0,.85-.09,1.64-.12,2.44,0,.49-.05,1-.07,1.47,0,.3-.2.44-.44.56l-3.88,1.85-.55.26.39.16c1.45.54,2.9,1.08,4.36,1.6a.83.83,0,0,1,.63.85c.06.93.17,1.85.27,2.85l.21-.3L23.78,25a.6.6,0,0,1,.58-.35.35.35,0,0,1,.26.56c-.43.63-.86,1.26-1.28,1.9-.31.48-.61,1-.92,1.46-.11.19-.25.36-.49.31s-.32-.28-.34-.51q-.18-1.8-.33-3.6a.45.45,0,0,0-.34-.45l-5.05-1.85a2.13,2.13,0,0,1-.35-.14.39.39,0,0,1,0-.69,3.47,3.47,0,0,1,.33-.18l4.65-2.21a.43.43,0,0,0,.29-.45q.07-2,.18-4c0-.47.31-.62.7-.38,1,.58,1.91,1.17,2.86,1.76.22.13.37.32.21.57s-.39.19-.61.06l-.16-.1-2-1.23Z"/><path class="cls-1" d="M33,21.75c-.78-.82-1.52-1.61-2.27-2.38a1,1,0,0,1-.31-.87c.16-1.05.29-2.09.42-3.14,0-.08,0-.16,0-.27l-.2,0-2.61.8c-.12,0-.21.15-.32.18s-.38.09-.47,0a.5.5,0,0,1-.1-.46.71.71,0,0,1,.4-.36c1.18-.38,2.37-.75,3.57-1.1.35-.11.6.12.56.49-.17,1.26-.33,2.53-.51,3.79a.47.47,0,0,0,.15.44l2.47,2.6c.15.16.36.35.23.57a.9.9,0,0,1-.51.33c-.65.17-1.31.3-2,.45l-.16,0c-.23,0-.43,0-.49-.26s.11-.42.35-.47c.46-.12.93-.22,1.4-.32Z"/><path class="cls-1" d="M74.77,44.85q-4.84-2.25-9.68-4.52a1.31,1.31,0,0,0-1.19,0Q58,42.88,52.06,45.4c-.51.23-1,.44-1.57.67l-.07-.2c-.25-1.22-.49-2.44-.76-3.66a6.09,6.09,0,0,0-.68-2.1,6.91,6.91,0,0,0-2.2-2.33,3.23,3.23,0,0,0-.42-.2c-.84-.32-1.69-.61-2.5-1-.58-.27-.55-.72,0-1.09a4.34,4.34,0,0,0,1.73-2.43,5.19,5.19,0,0,0,.14-1.42c0-1.64,0-3.27-.07-4.91a1.33,1.33,0,0,0,0-.34,3.22,3.22,0,0,0-1.23-1.8,4,4,0,0,0-2-.86,5.58,5.58,0,0,0-4.19,1.13,2,2,0,0,0-.84,1.24c-.06.85-.09,1.7-.08,2.54,0,1.14,0,2.27.08,3.4a3.06,3.06,0,0,0,.17.85A3.91,3.91,0,0,0,39.3,35a1.34,1.34,0,0,1,.42.36.69.69,0,0,1,0,.49c0,.1-.25.23-.33.2a7.38,7.38,0,0,1-1.49-.56,16,16,0,0,1-1.78-1.28A16,16,0,0,1,33,30.92a8.32,8.32,0,0,0-1.34-1.57,2.61,2.61,0,0,1-.53-.66c-.57-1-1.13-1.9-1.67-2.87s-.92-1.77-1.4-2.64c-.18-.31-.09-.47.17-.66a1.4,1.4,0,0,0,.56-1.69A13.38,13.38,0,0,0,27.7,18.6a1.44,1.44,0,0,0-2.14-.35,10.93,10.93,0,0,1-1,.65c-.47.29-.95.57-1.41.88a1,1,0,0,0-.45,1.12c.37.85.76,1.7,1.18,2.52a1.06,1.06,0,0,0,1.37.5c.4-.14.55-.11.75.26s.5.94.72,1.43c.36.79.67,1.6,1,2.39.48,1.05,1,2.09,1.52,3.13A11.39,11.39,0,0,0,30,32.36c.4.59.88,1.12,1.25,1.73,1.24,2,2.45,4.1,3.65,6.17a3,3,0,0,1,.43,1.25c.05,1.47,0,2.94,0,4.4,0,.09,0,.18,0,.31L34.83,46,20.48,40.38a.88.88,0,0,0-.91.08c-2.24,1.48-4.49,2.94-6.73,4.41L6.57,49c-.11.07-.25.18-.27.3a3.73,3.73,0,0,0,0,.76l.34-.2,6.79-4.45a.4.4,0,0,1,.59,0c.59.53,1.23,1,1.81,1.55a.81.81,0,0,0,1,.13c1.31-.63,2.64-1.23,3.95-1.85a.51.51,0,0,1,.53,0c.33.2.68.38,1,.56.78.41,1.56.82,2.33,1.24a.63.63,0,0,0,.65,0l4-2.18a.53.53,0,0,1,.35,0c1.82.71,3.65,1.43,5.47,2.16a.38.38,0,0,1,.2.23c.06.74.13,1.48.15,2.22,0,1.09,0,2.18,0,3.27a28,28,0,0,1-.29,4.48c-.12.9-.3,1.8-.45,2.69a25.7,25.7,0,0,0-.1,4.64,14.84,14.84,0,0,0,.18,1.85h5.59c0-.34,0-.69,0-1a.3.3,0,0,1,.16-.22c.39-.16.79-.3,1.25-.47,0,.58,0,1.15,0,1.73h5.88c0-1.4,0-2.79.07-4.19a13.86,13.86,0,0,0-.35-2.41c-.18-1.34-.43-2.67-.53-4-.11-1.65-.1-3.31-.14-5,0-.65,0-1.3-.06-2a.38.38,0,0,1,.29-.44c.33-.12.65-.27,1-.43.16.53.36,1,.46,1.52.21,1,.38,2,.53,3,.24,1.56.45,3.11.67,4.67a1.53,1.53,0,0,1-.23,1,3,3,0,0,0-.36,1.94c0,.17.22.36.39.46a.33.33,0,0,1,.21.33,8.45,8.45,0,0,0,.09,1.12,1.1,1.1,0,0,0,2.19.08,9,9,0,0,0,0-1.27c0-.53-.09-1.05-.08-1.57a14.9,14.9,0,0,0-.27-2.75,9.39,9.39,0,0,1-.14-2.37,9.2,9.2,0,0,0-.06-1.57c0-.59-.14-1.18-.15-1.78a12.16,12.16,0,0,0-.44-2.62c-.09-.39-.17-.78-.23-1.17a.35.35,0,0,1,.15-.28l4.62-2a.34.34,0,0,1,.28,0l3.88,2.08a.77.77,0,0,0,.72,0c1.58-.59,3.16-1.16,4.74-1.76a.89.89,0,0,1,.66,0l3,1.18a.7.7,0,0,0,.85-.17c.61-.6,1.24-1.19,1.86-1.79a.33.33,0,0,1,.44-.07l2.87,1.34Zm-46.52-.29-2.84,1.56a.84.84,0,0,1-.9,0c-1-.56-2-1.08-3-1.63a.85.85,0,0,0-.86,0c-1.3.62-2.61,1.21-3.9,1.83a.53.53,0,0,1-.69-.09c-.53-.49-1.09-.94-1.68-1.44l.26-.2,5.16-3.37a.46.46,0,0,1,.48-.09l8,3.18.21.1Zm18.49,3.13a15.61,15.61,0,0,1,.14-3.22H47l.85,2.75Zm22.71-2.38a.69.69,0,0,1-.92.18c-.92-.39-1.86-.72-2.78-1.09a1,1,0,0,0-.76,0l-4.74,1.76a.58.58,0,0,1-.53,0c-1-.55-2-1.08-3-1.61l-.28-.17,1.69-.73,6-2.58a.77.77,0,0,1,.56,0l6,2.78.2.11C70.4,44.38,69.9,44.82,69.45,45.31Z"/><path class="cls-1" d="M40.85,81.7A40.85,40.85,0,1,1,81.7,40.85,40.9,40.9,0,0,1,40.85,81.7Zm0-77.32A36.47,36.47,0,1,0,77.32,40.85,36.51,36.51,0,0,0,40.85,4.38Z"/></svg>