<svg id="Capa_1" data-name="Capa 1" xmlns="http://www.w3.org/2000/svg" xmlns:xlink="http://www.w3.org/1999/xlink" viewBox="0 0 22.06 22.08"><defs><style>.cls-1{fill:url(#Degradado_sin_nombre_14);}</style><linearGradient id="Degradado_sin_nombre_14" x1="10.29" y1="-3.82" x2="12.12" y2="32.86" gradientUnits="userSpaceOnUse"><stop offset="0" stop-color="#e1841f"/><stop offset="1" stop-color="#dd6618"/></linearGradient></defs><title>Mesa de trabajo 21</title><path class="cls-1" d="M11,22.08a11,11,0,1,1,11-11A11.06,11.06,0,0,1,11,22.08ZM9.2,11.77v5.71c0,.35,0,.38.36.38h2.17c.36,0,.38,0,.38-.39v-5.7h2.34c.25,0,.35-.08.35-.34,0-.8,0-1.59,0-2.39,0-.26-.09-.35-.35-.35H12V7.25h2.54c.17,0,.3,0,.3-.24,0-.85,0-1.7,0-2.55a.31.31,0,0,0-.22-.22c-1.06,0-2.13,0-3.19.06a2.2,2.2,0,0,0-2,1.78A8.59,8.59,0,0,0,9.2,8.34V8.7H7.6c-.24,0-.34.08-.34.33,0,.78,0,1.56,0,2.34,0,.39,0,.41.4.41Z"/></svg>