<svg id="Capa_1" data-name="Capa 1" xmlns="http://www.w3.org/2000/svg" xmlns:xlink="http://www.w3.org/1999/xlink" viewBox="0 0 66.18 23.12"><defs><style>.cls-1{fill:url(#Degradado_sin_nombre_14);}</style><linearGradient id="Degradado_sin_nombre_14" x1="34" y1="5.34" x2="31.58" y2="52.48" gradientUnits="userSpaceOnUse"><stop offset="0" stop-color="#e1841f"/><stop offset="1" stop-color="#dd6618"/></linearGradient></defs><title>Mesa de trabajo 19</title><path class="cls-1" d="M61.13,16.23,59.61,17,52,7.93,48.4,10,40.23,0,29.87,9.31,28.21,7.62,20,14.29l-5.21-4.7C13.43,11,1.22,22,0,23.12H8.93l6.46-7.25,4.13,3.29.88-.78,5.82,4.74h4.3l-7-6.52,5.5-4.34,5.48,5,4.76-4.41,2.47,2.46L44.49,13,54,23.12H58l-6.77-8,2-1.15,4.63,5.36,1.08-.42,3.88,4.21h3.4Z"/></svg>