<svg id="Capa_1" data-name="Capa 1" xmlns="http://www.w3.org/2000/svg" xmlns:xlink="http://www.w3.org/1999/xlink" viewBox="0 0 23.5 24.77"><defs><style>.cls-1{fill:url(#Degradado_sin_nombre_14);}</style><linearGradient id="Degradado_sin_nombre_14" y1="12.38" x2="23.5" y2="12.38" gradientUnits="userSpaceOnUse"><stop offset="0" stop-color="#e1841f"/><stop offset="1" stop-color="#dd6618"/></linearGradient></defs><title>Mesa de trabajo 9</title><path class="cls-1" d="M2.81,4.17c.07,0,.2,0,.31.08.64.2,1.27.41,1.91.63a.24.24,0,0,0,.28,0A9.93,9.93,0,0,1,8.44,3a.25.25,0,0,0,.17-.22c.13-.65.27-1.3.4-2A1,1,0,0,1,10,0h3.42a1,1,0,0,1,1,.86l.39,1.92a.26.26,0,0,0,.2.24A10.15,10.15,0,0,1,18.16,4.8a.32.32,0,0,0,.36.06l1.87-.61a1,1,0,0,1,1.23.47l1.73,3A1,1,0,0,1,23.15,9l-1.52,1.34a.28.28,0,0,0-.1.29,10.18,10.18,0,0,1,0,3.61.22.22,0,0,0,.09.24l1.48,1.32a1,1,0,0,1,.22,1.35L21.64,20a1,1,0,0,1-1.31.49l-1.84-.61a.26.26,0,0,0-.29,0,9.82,9.82,0,0,1-3.13,1.81.27.27,0,0,0-.18.23l-.39,1.93a1,1,0,0,1-1.05.86H10.06A1,1,0,0,1,9,23.91c-.13-.63-.26-1.26-.38-1.89a.35.35,0,0,0-.25-.29,10.07,10.07,0,0,1-3-1.76A.31.31,0,0,0,5,19.9c-.63.22-1.26.43-1.9.63a1,1,0,0,1-1.21-.46c-.59-1-1.17-2-1.75-3a.93.93,0,0,1,.2-1.21c.5-.46,1-.9,1.51-1.35A.29.29,0,0,0,2,14.16a10.07,10.07,0,0,1,0-3.59.24.24,0,0,0-.1-.26L.4,9A1,1,0,0,1,.18,7.66L1.87,4.73A1,1,0,0,1,2.81,4.17ZM16,12.41a4.2,4.2,0,1,0-4.27,4.17A4.2,4.2,0,0,0,16,12.41Z"/></svg>