<svg id="Capa_1" data-name="Capa 1" xmlns="http://www.w3.org/2000/svg" xmlns:xlink="http://www.w3.org/1999/xlink" viewBox="0 0 4790 1805.64"><defs><style>.cls-1{fill:none;}.cls-2,.cls-4{opacity:0.15;}.cls-2{fill:url(#Degradado_sin_nombre_2);}.cls-3{clip-path:url(#clip-path);}.cls-5{fill:url(#Degradado_sin_nombre_2-2);}</style><linearGradient id="Degradado_sin_nombre_2" x1="2463.75" y1="407.3" x2="2274.39" y2="4089.32" gradientUnits="userSpaceOnUse"><stop offset="0" stop-color="#fff"/><stop offset="1" stop-color="#dd6618"/></linearGradient><clipPath id="clip-path"><rect class="cls-1" x="-4996" y="-1782.18" width="4790" height="3587.82"/></clipPath><linearGradient id="Degradado_sin_nombre_2-2" x1="-2340.32" y1="417.17" x2="-2529.68" y2="4099.19" xlink:href="#Degradado_sin_nombre_2"/></defs><title>Mesa de trabajo 1 copia</title><path class="cls-2" d="M4774.44,1267.63l-118.68,57.61L4063.37,619,3780.45,782,3142.29,0,2333.22,726.81,2203.56,595.15l-638.11,520.59-407.2-367C1048.69,855.16,95.32,1718.87,0,1805.64H697.75l503.94-566.32,323,257,68.92-61L2048,1805.64h336l-544.92-509.48L2268.8,957.4,2697,1351.07l371.52-344.38,192.82,192.54L3475.17,1015l743.66,790.66h307.6L3997.69,1180.8l156.53-89.6L4516,1509.4l84-32.66,190,205.79V1288.87Z"/><g class="cls-3"><g class="cls-4"><path class="cls-5" d="M-221.56,1267.63l-118.68,57.61L-932.63,619-1215.55,782-1853.71,0l-809.07,726.81-129.66-131.66-638.11,520.59-407.2-367C-3947.31,855.16-4900.68,1718.87-4996,1805.64h697.75l503.94-566.32,323,257,68.92-61L-2948,1805.64h336l-544.92-509.48L-2727.2,957.4-2299,1351.07l371.52-344.38,192.82,192.54L-1520.83,1015l743.66,790.66h307.6L-998.31,1180.8l156.53-89.6L-480,1509.4l84-32.66,303.64,328.9H172.54Z"/></g></g></svg>